# Poly-Spinor Nexus 7D Avatar
# Vault: vault_00032
# Avatar ID: e74d45c958f5031c
# Type: 7d_projection
# Rarity: mythical (95.5)
# Generated: 2026-01-07T02:40:10.766723

v 1.823132 -0.966359 0.026906
v 2.546385 -0.840831 -0.627863
v 2.762939 -0.360046 -0.920476
v 2.367214 0.280997 -0.718094
v 1.504886 0.835798 -0.179822
v 0.506481 1.093532 0.332567
v -0.268236 0.953858 0.467917
v -0.594738 0.462597 0.095541
v -0.47381 -0.204975 -0.614685
v -0.105771 -0.807752 -1.291586
v 0.230119 -1.126682 -1.583868
v 0.321513 -1.04515 -1.371935
v 0.11628 -0.592644 -0.842665
v -0.279916 0.064192 -0.379256
v -0.688844 0.679905 -0.32783
v -0.970076 1.017012 -0.777323
v -1.090251 0.930355 -1.484648
v -1.115579 0.419574 -1.994734
v -1.141472 -0.368114 -1.892011
v -1.211258 -1.185094 -1.041946
v -1.279859 -1.763973 0.315879
v -1.246642 -1.904479 1.678874
v -1.034996 -1.538336 2.536984
v -0.66384 -0.751734 2.63119
v -0.259072 0.240979 2.072427
v 0.010159 1.163415 1.258411
v 0.036662 1.762078 0.640525
v -0.142276 1.883653 0.476202
v -0.341307 1.520819 0.706608
v -0.315117 0.812349 1.023588
v 0.103828 -0.002664 1.078759
v 0.893459 -0.662281 0.706364

vt 0.4224 0.4958
vt 0.4492 0.5732
vt 0.4794 0.6016
vt 0.5188 0.5931
vt 0.5807 0.5331
vt 0.681 0.4143
vt 0.7936 0.3596
vt 0.8948 0.4599
vt 0.065 0.7776
vt 0.2293 0.8209
vt 0.2821 0.8001
vt 0.2975 0.7858
vt 0.2808 0.8021
vt 0.9641 0.7937
vt 0.876 0.604
vt 0.8712 0.6608
vt 0.8876 0.7556
vt 0.9427 0.8286
vt 0.0497 0.8202
vt 0.1233 0.6755
vt 0.1501 0.4542
vt 0.1578 0.2977
vt 0.1557 0.2009
vt 0.1349 0.1159
vt 0.8808 0.0538
vt 0.7486 0.2375
vt 0.7467 0.389
vt 0.762 0.4214
vt 0.7851 0.3645
vt 0.8089 0.2245
vt 0.4959 0.0306
vt 0.3985 0.3199

vn 0.633092 0.266283 0.726835
vn 0.639106 0.195432 0.743875
vn 0.622934 0.141145 0.769436
vn 0.55497 0.01246 0.831777
vn 0.418033 -0.274999 0.865808
vn 0.290639 -0.541327 0.788983
vn 0.244457 -0.65491 0.715076
vn 0.212929 -0.692635 0.689143
vn 0.106684 -0.728504 0.676684
vn -0.117018 -0.778706 0.616379
vn -0.346804 -0.788151 0.508473
vn -0.563831 -0.731919 0.382608
vn -0.744529 -0.6323 0.21418
vn -0.810979 -0.571805 0.1239
vn -0.842015 -0.524115 0.127722
vn -0.904829 -0.393632 0.162292
vn -0.979356 -0.161069 0.122142
vn -0.999676 -0.00938 0.023646
vn -0.99885 0.040441 -0.025761
vn -0.994424 0.104841 -0.011371
vn -0.972618 0.230565 0.029214
vn -0.93507 0.350776 0.050998
vn -0.9107 0.408352 0.062237
vn -0.89106 0.439467 0.113493
vn -0.817354 0.512319 0.263555
vn -0.577625 0.63588 0.511864
vn -0.278799 0.676463 0.681667
vn -0.015271 0.593274 0.804855
vn 0.374699 0.435922 0.818274
vn 0.564399 0.371744 0.737062
vn 0.616553 0.35944 0.700475
vn 0.627444 0.33176 0.704449

f 1/1/1 2/2/2 3/3/3
f 2/2/2 3/3/3 4/4/4
f 3/3/3 4/4/4 5/5/5
f 4/4/4 5/5/5 6/6/6
f 5/5/5 6/6/6 7/7/7
f 6/6/6 7/7/7 8/8/8
f 7/7/7 8/8/8 9/9/9
f 8/8/8 9/9/9 10/10/10
f 9/9/9 10/10/10 11/11/11
f 10/10/10 11/11/11 12/12/12
f 11/11/11 12/12/12 13/13/13
f 12/12/12 13/13/13 14/14/14
f 13/13/13 14/14/14 15/15/15
f 14/14/14 15/15/15 16/16/16
f 15/15/15 16/16/16 17/17/17
f 16/16/16 17/17/17 18/18/18
f 17/17/17 18/18/18 19/19/19
f 18/18/18 19/19/19 20/20/20
f 19/19/19 20/20/20 21/21/21
f 20/20/20 21/21/21 22/22/22
f 21/21/21 22/22/22 23/23/23
f 22/22/22 23/23/23 24/24/24
f 23/23/23 24/24/24 25/25/25
f 24/24/24 25/25/25 26/26/26
f 25/25/25 26/26/26 27/27/27
f 26/26/26 27/27/27 28/28/28
f 27/27/27 28/28/28 29/29/29
f 28/28/28 29/29/29 30/30/30
f 29/29/29 30/30/30 31/31/31
f 30/30/30 31/31/31 32/32/32
f 31/31/31 32/32/32 1/1/1
f 32/32/32 1/1/1 2/2/2
