# Poly-Spinor Nexus 7D Avatar
# Vault: vault_00030
# Avatar ID: 190563700e3e1e47
# Type: nexus_crystal
# Rarity: mythical (91.0)
# Generated: 2026-01-07T02:40:07.403101

v 1.304938 0.436803 -0.808428
v 0.634621 -0.743444 -0.427582
v 0.147501 -0.385219 -1.020322
v -0.123142 0.372724 -1.047661
v 0.026492 0.959639 -0.48901
v 0.483725 0.933566 0.234954
v 0.904252 0.314139 0.579072
v 0.971407 -0.4322 0.284216
v -0.073119 -1.181948 -0.756645
v -0.703909 -0.252808 -1.272822
v -0.804642 0.866702 -0.830538
v -0.299463 1.333567 0.237158
v 0.431218 0.79623 1.126269
v 0.837183 -0.340685 1.167277
v 0.612732 -1.221057 0.329301
v -0.235338 -1.034646 0.111371
v -0.722458 -0.676421 -0.48137
v -0.993101 0.081523 -0.508708
v -0.843467 0.668437 0.049942
v -0.386234 0.642365 0.773906
v 0.034294 0.022938 1.118024
v 0.101448 -0.723402 0.823168
v -1.304938 -0.436803 0.808428

vt 0.5514 0.6691
vt 0.3625 0.6313
vt 0.3082 0.8777
vt 0.8008 0.8859
vt 0.7456 0.65
vt 0.6739 0.43
vt 0.5532 0.3268
vt 0.4334 0.4169
vt 0.2402 0.681
vt 0.0549 0.8309
vt 0.8691 0.6949
vt 0.7852 0.4453
vt 0.671 0.2155
vt 0.4385 0.2097
vt 0.324 0.4247
vt 0.2144 0.4667
vt 0.1198 0.6441
vt 0.987 0.6503
vt 0.8933 0.4852
vt 0.8362 0.2449
vt 0.5938 0.0117
vt 0.2722 0.231
vt 0.0514 0.3309

vn 0.817631 0.273686 -0.506534
vn 0.704285 -0.537166 -0.46415
vn 0.358768 -0.25523 -0.897855
vn 0.147285 0.374862 -0.915306
vn 0.236716 0.844103 -0.481098
vn 0.563282 0.825481 0.035972
vn 0.901271 0.331868 0.278522
vn 0.956045 -0.289288 0.047848
vn -0.075433 -0.932767 -0.352498
vn -0.539491 -0.343062 -0.768933
vn -0.67507 0.516725 -0.52657
vn -0.379958 0.912534 0.151372
vn 0.090054 0.634113 0.767978
vn 0.430194 -0.184966 0.883584
vn 0.337446 -0.874527 0.348328
vn -0.41591 -0.906527 0.072307
vn -0.799045 -0.520235 -0.301467
vn -0.966742 0.152102 -0.205608
vn -0.777661 0.561316 0.28314
vn -0.421166 0.427919 0.79969
vn -0.131863 -0.168263 0.976883
vn -0.128823 -0.765135 0.630851
vn -0.81763 -0.273685 0.506534

f 1/1/1 2/2/2 3/3/3
f 1/1/1 3/3/3 4/4/4
f 1/1/1 4/4/4 5/5/5
f 1/1/1 5/5/5 6/6/6
f 1/1/1 6/6/6 7/7/7
f 1/1/1 7/7/7 8/8/8
f 1/1/1 8/8/8 2/2/2
f 2/2/2 9/9/9 3/3/3
f 3/3/3 9/9/9 10/10/10
f 3/3/3 10/10/10 4/4/4
f 4/4/4 10/10/10 11/11/11
f 4/4/4 11/11/11 5/5/5
f 5/5/5 11/11/11 12/12/12
f 5/5/5 12/12/12 6/6/6
f 6/6/6 12/12/12 13/13/13
f 6/6/6 13/13/13 7/7/7
f 7/7/7 13/13/13 14/14/14
f 7/7/7 14/14/14 8/8/8
f 8/8/8 14/14/14 15/15/15
f 8/8/8 15/15/15 2/2/2
f 2/2/2 15/15/15 9/9/9
f 9/9/9 16/16/16 10/10/10
f 10/10/10 16/16/16 17/17/17
f 10/10/10 17/17/17 11/11/11
f 11/11/11 17/17/17 18/18/18
f 11/11/11 18/18/18 12/12/12
f 12/12/12 18/18/18 19/19/19
f 12/12/12 19/19/19 13/13/13
f 13/13/13 19/19/19 20/20/20
f 13/13/13 20/20/20 14/14/14
f 14/14/14 20/20/20 21/21/21
f 14/14/14 21/21/21 15/15/15
f 15/15/15 21/21/21 22/22/22
f 15/15/15 22/22/22 9/9/9
f 9/9/9 22/22/22 16/16/16
f 16/16/16 23/23/23 17/17/17
f 17/17/17 23/23/23 18/18/18
f 18/18/18 23/23/23 19/19/19
f 19/19/19 23/23/23 20/20/20
f 20/20/20 23/23/23 21/21/21
f 21/21/21 23/23/23 22/22/22
f 22/22/22 23/23/23 16/16/16
