# Poly-Spinor Nexus 7D Avatar
# Vault: vault_00027
# Avatar ID: 8b99fc635b7bb75b
# Type: nexus_crystal
# Rarity: mythical (95.8)
# Generated: 2026-01-07T02:40:01.625997

v 0.699493 1.982754 -0.199847
v 1.084589 0.283508 -0.830933
v 0.187613 0.557664 -1.250466
v -0.675062 0.909574 -0.778536
v -0.853824 1.07424 0.229485
v -0.214061 0.927667 1.014535
v 0.762471 0.580226 0.985457
v 1.340425 0.293548 0.164147
v 0.670839 -0.400123 -1.621727
v -0.79396 0.121038 -1.57811
v -1.660891 0.551054 -0.346144
v -1.277137 0.566116 1.146476
v 0.068327 0.15488 1.775775
v 1.362339 -0.372983 1.06788
v 1.630482 -0.619983 -0.444151
v 0.61826 -1.038329 -0.697701
v -0.278716 -0.764172 -1.117234
v -1.141391 -0.412263 -0.645304
v -1.320153 -0.247596 0.362716
v -0.68039 -0.39417 1.147767
v 0.296142 -0.74161 1.118689
v 0.874096 -1.028288 0.297378
v -0.699493 -1.982754 0.199847

vt 0.696 0.5302
vt 0.5407 0.703
vt 0.6983 0.86
vt 0.8516 0.6917
vt 0.8569 0.4473
vt 0.7861 0.2399
vt 0.6035 0.2455
vt 0.5343 0.4621
vt 0.4144 0.8571
vt 0.9759 0.8502
vt 0.949 0.5622
vt 0.9336 0.2812
vt 0.6839 0.0303
vt 0.4575 0.2939
vt 0.4422 0.5794
vt 0.3355 0.6667
vt 0.1943 0.7997
vt 0.0552 0.6556
vt 0.0295 0.416
vt 0.0836 0.1912
vt 0.3105 0.1973
vt 0.3621 0.431
vt 0.196 0.4698

vn 0.3312 0.938804 -0.094625
vn 0.750049 0.381986 -0.539919
vn 0.172385 0.55275 -0.815323
vn -0.365035 0.768714 -0.525193
vn -0.469002 0.8761 0.111741
vn -0.052621 0.780704 0.622681
vn 0.561858 0.556358 0.612195
vn 0.918779 0.381747 0.100575
vn 0.404872 -0.370954 -0.835746
vn -0.404519 -0.090545 -0.910036
vn -0.939254 0.158631 -0.304364
vn -0.810488 0.197334 0.551515
vn -0.090103 -0.010526 0.995877
vn 0.649697 -0.300056 0.69847
vn 0.879191 -0.464306 -0.106975
vn 0.250159 -0.801101 -0.543744
vn -0.382078 -0.588519 -0.712504
vn -0.8759 -0.372801 -0.306297
vn -0.871883 -0.312094 0.377382
vn -0.354847 -0.447311 0.820973
vn 0.270348 -0.675868 0.685649
vn 0.54089 -0.836768 0.085187
vn -0.331199 -0.938804 0.094625

f 1/1/1 2/2/2 3/3/3
f 1/1/1 3/3/3 4/4/4
f 1/1/1 4/4/4 5/5/5
f 1/1/1 5/5/5 6/6/6
f 1/1/1 6/6/6 7/7/7
f 1/1/1 7/7/7 8/8/8
f 1/1/1 8/8/8 2/2/2
f 2/2/2 9/9/9 3/3/3
f 3/3/3 9/9/9 10/10/10
f 3/3/3 10/10/10 4/4/4
f 4/4/4 10/10/10 11/11/11
f 4/4/4 11/11/11 5/5/5
f 5/5/5 11/11/11 12/12/12
f 5/5/5 12/12/12 6/6/6
f 6/6/6 12/12/12 13/13/13
f 6/6/6 13/13/13 7/7/7
f 7/7/7 13/13/13 14/14/14
f 7/7/7 14/14/14 8/8/8
f 8/8/8 14/14/14 15/15/15
f 8/8/8 15/15/15 2/2/2
f 2/2/2 15/15/15 9/9/9
f 9/9/9 16/16/16 10/10/10
f 10/10/10 16/16/16 17/17/17
f 10/10/10 17/17/17 11/11/11
f 11/11/11 17/17/17 18/18/18
f 11/11/11 18/18/18 12/12/12
f 12/12/12 18/18/18 19/19/19
f 12/12/12 19/19/19 13/13/13
f 13/13/13 19/19/19 20/20/20
f 13/13/13 20/20/20 14/14/14
f 14/14/14 20/20/20 21/21/21
f 14/14/14 21/21/21 15/15/15
f 15/15/15 21/21/21 22/22/22
f 15/15/15 22/22/22 9/9/9
f 9/9/9 22/22/22 16/16/16
f 16/16/16 23/23/23 17/17/17
f 17/17/17 23/23/23 18/18/18
f 18/18/18 23/23/23 19/19/19
f 19/19/19 23/23/23 20/20/20
f 20/20/20 23/23/23 21/21/21
f 21/21/21 23/23/23 22/22/22
f 22/22/22 23/23/23 16/16/16
