# Poly-Spinor Nexus 7D Avatar
# Vault: vault_00002
# Avatar ID: 2733e4c4fecab995
# Type: 7d_projection
# Rarity: primordial (100.0)
# Generated: 2026-01-07T02:47:45.601893

v -0.790583 0.660562 0.509601
v -1.067857 1.03045 0.89173
v -1.123085 1.102357 0.99542
v -0.938642 0.785744 0.804496
v -0.591643 0.196159 0.422142
v -0.219315 -0.400265 0.024085
v 0.046787 -0.72931 -0.225724
v 0.142968 -0.655339 -0.252945
v 0.098658 -0.247682 -0.102778
v 0.011652 0.269851 0.093643
v -0.012154 0.653986 0.197321
v 0.079508 0.780055 0.140582
v 0.256374 0.701187 -0.036119
v 0.424934 0.594953 -0.209218
v 0.483958 0.632054 -0.243829
v 0.384162 0.849181 -0.071696
v 0.158327 1.106475 0.267772
v -0.094424 1.159812 0.644895
v -0.260262 0.808736 0.904209
v -0.268477 0.033464 0.939395
v -0.123464 -0.962501 0.738206
v 0.105089 -1.834957 0.376069
v 0.325246 -2.265555 -0.032925
v 0.471993 -2.121456 -0.395588
v 0.533598 -1.519355 -0.674595
v 0.541644 -0.758114 -0.881507
v 0.534266 -0.158089 -1.038043
v 0.518626 0.102736 -1.135712
v 0.458733 0.065154 -1.124229
v 0.298277 -0.061729 -0.939697
v 0.005244 -0.044181 -0.556429
v -0.390138 0.225614 -0.028532

vt 0.8892 0.3538
vt 0.8778 0.3278
vt 0.8765 0.3205
vt 0.8891 0.3149
vt 0.949 0.3105
vt 0.1702 0.4832
vt 0.2602 0.5954
vt 0.2842 0.6148
vt 0.3103 0.6171
vt 0.7431 0.3938
vt 0.753 0.4067
vt 0.7338 0.4435
vt 0.6942 0.5154
vt 0.6513 0.5887
vt 0.646 0.5946
vt 0.6824 0.5244
vt 0.7274 0.4252
vt 0.7629 0.3389
vt 0.7996 0.2401
vt 0.9803 0.0893
vt 0.2297 0.293
vt 0.2591 0.4358
vt 0.2727 0.5046
vt 0.2848 0.5573
vt 0.3038 0.6263
vt 0.3487 0.7412
vt 0.4542 0.8432
vt 0.5311 0.8613
vt 0.5225 0.8756
vt 0.4675 0.9002
vt 0.2688 0.9746
vt 0.9166 0.5201

vn -0.756888 0.091292 -0.647138
vn -0.093983 0.657119 -0.747905
vn 0.874727 0.466114 0.132632
vn 0.864902 0.217685 0.452281
vn 0.54115 -0.210206 0.81423
vn 0.442115 -0.287985 0.84947
vn 0.442984 -0.281119 0.851315
vn 0.421786 -0.278904 0.862733
vn 0.075716 -0.362897 0.928748
vn -0.75284 0.112779 -0.64847
vn -0.676603 0.151351 -0.720625
vn -0.66583 0.151098 -0.730644
vn -0.693022 0.083053 -0.716116
vn 0.592286 -0.321803 0.738675
vn 0.69794 -0.210156 0.684628
vn 0.793743 -0.080094 0.602957
vn 0.825667 -0.008526 0.564093
vn 0.831657 0.012203 0.555156
vn 0.836867 0.016159 0.547168
vn 0.851609 0.020635 0.52377
vn 0.876927 0.036064 0.479269
vn 0.899231 0.059994 0.433341
vn 0.908619 0.079791 0.409933
vn 0.908048 0.092355 0.408558
vn 0.894037 0.105222 0.435462
vn 0.771817 0.154473 0.616795
vn -0.352743 0.276295 0.893999
vn -0.61837 0.438449 0.652212
vn -0.877332 0.342674 -0.335952
vn -0.803322 0.104931 -0.586228
vn -0.793953 0.041181 -0.606583
vn -0.790511 0.031185 -0.611653

f 1/1/1 2/2/2 3/3/3
f 2/2/2 3/3/3 4/4/4
f 3/3/3 4/4/4 5/5/5
f 4/4/4 5/5/5 6/6/6
f 5/5/5 6/6/6 7/7/7
f 6/6/6 7/7/7 8/8/8
f 7/7/7 8/8/8 9/9/9
f 8/8/8 9/9/9 10/10/10
f 9/9/9 10/10/10 11/11/11
f 10/10/10 11/11/11 12/12/12
f 11/11/11 12/12/12 13/13/13
f 12/12/12 13/13/13 14/14/14
f 13/13/13 14/14/14 15/15/15
f 14/14/14 15/15/15 16/16/16
f 15/15/15 16/16/16 17/17/17
f 16/16/16 17/17/17 18/18/18
f 17/17/17 18/18/18 19/19/19
f 18/18/18 19/19/19 20/20/20
f 19/19/19 20/20/20 21/21/21
f 20/20/20 21/21/21 22/22/22
f 21/21/21 22/22/22 23/23/23
f 22/22/22 23/23/23 24/24/24
f 23/23/23 24/24/24 25/25/25
f 24/24/24 25/25/25 26/26/26
f 25/25/25 26/26/26 27/27/27
f 26/26/26 27/27/27 28/28/28
f 27/27/27 28/28/28 29/29/29
f 28/28/28 29/29/29 30/30/30
f 29/29/29 30/30/30 31/31/31
f 30/30/30 31/31/31 32/32/32
f 31/31/31 32/32/32 1/1/1
f 32/32/32 1/1/1 2/2/2
