# Poly-Spinor Nexus 7D Avatar
# Vault: vault_00022
# Avatar ID: 56d178f314fa7fe9
# Type: nexus_crystal
# Rarity: mythical (91.0)
# Generated: 2026-01-07T02:39:47.423028

v 0.108135 1.579674 -0.262607
v -0.317927 0.399905 -0.995155
v -0.767746 0.523548 -0.43662
v -0.612295 0.649458 0.384783
v 0.03137 0.682822 0.85052
v 0.678555 0.598515 0.609882
v 0.841917 0.460023 -0.155926
v 0.398441 0.371633 -0.870234
v -0.963765 -0.107936 -1.046127
v -1.208808 0.099802 0.102585
v -0.543594 0.232387 1.174048
v 0.530958 0.18998 1.361429
v 1.205687 0.004514 0.523626
v 0.97251 -0.184351 -0.708478
v 0.007012 -0.234396 -1.407083
v -0.390017 -0.653211 -0.820083
v -0.839836 -0.529567 -0.261548
v -0.684385 -0.403657 0.559854
v -0.04072 -0.370294 1.025591
v 0.606465 -0.454601 0.784954
v 0.769827 -0.593092 0.019146
v 0.326351 -0.681482 -0.695163
v -0.108135 -1.579674 0.262607

vt 0.7391 0.5523
vt 0.8569 0.849
vt 0.9047 0.6398
vt 0.8703 0.3704
vt 0.7427 0.2155
vt 0.615 0.3112
vt 0.5796 0.5513
vt 0.6195 0.8219
vt 0.0178 0.762
vt 0.9869 0.4731
vt 0.9357 0.1485
vt 0.5547 0.125
vt 0.5006 0.3696
vt 0.4702 0.6977
vt 0.2548 0.9474
vt 0.1643 0.7619
vt 0.0895 0.582
vt 0.0848 0.3046
vt 0.2326 0.1109
vt 0.3976 0.2444
vt 0.3955 0.4937
vt 0.3211 0.7367
vt 0.2391 0.4477

vn 0.067374 0.98422 -0.163618
vn -0.216722 0.579258 -0.785806
vn -0.712089 0.648442 -0.269169
vn -0.63074 0.714307 0.303203
vn -0.076093 0.785521 0.614139
vn 0.628137 0.693783 0.35229
vn 0.817516 0.525648 -0.235291
vn 0.493699 0.491368 -0.717509
vn -0.701532 -0.208822 -0.681356
vn -0.99431 -0.038324 0.099396
vn -0.665802 0.042625 0.74491
vn 0.219172 0.000232 0.975686
vn 0.932292 -0.140438 0.333331
vn 0.878608 -0.248858 -0.407574
vn 0.268942 -0.308254 -0.912496
vn -0.470486 -0.707442 -0.527417
vn -0.84999 -0.524117 0.053091
vn -0.657783 -0.439941 0.61137
vn -0.006689 -0.504611 0.863321
vn 0.660529 -0.592565 0.461051
vn 0.73773 -0.654317 -0.166205
vn 0.301354 -0.738323 -0.603378
vn -0.067374 -0.98422 0.163618

f 1/1/1 2/2/2 3/3/3
f 1/1/1 3/3/3 4/4/4
f 1/1/1 4/4/4 5/5/5
f 1/1/1 5/5/5 6/6/6
f 1/1/1 6/6/6 7/7/7
f 1/1/1 7/7/7 8/8/8
f 1/1/1 8/8/8 2/2/2
f 2/2/2 9/9/9 3/3/3
f 3/3/3 9/9/9 10/10/10
f 3/3/3 10/10/10 4/4/4
f 4/4/4 10/10/10 11/11/11
f 4/4/4 11/11/11 5/5/5
f 5/5/5 11/11/11 12/12/12
f 5/5/5 12/12/12 6/6/6
f 6/6/6 12/12/12 13/13/13
f 6/6/6 13/13/13 7/7/7
f 7/7/7 13/13/13 14/14/14
f 7/7/7 14/14/14 8/8/8
f 8/8/8 14/14/14 15/15/15
f 8/8/8 15/15/15 2/2/2
f 2/2/2 15/15/15 9/9/9
f 9/9/9 16/16/16 10/10/10
f 10/10/10 16/16/16 17/17/17
f 10/10/10 17/17/17 11/11/11
f 11/11/11 17/17/17 18/18/18
f 11/11/11 18/18/18 12/12/12
f 12/12/12 18/18/18 19/19/19
f 12/12/12 19/19/19 13/13/13
f 13/13/13 19/19/19 20/20/20
f 13/13/13 20/20/20 14/14/14
f 14/14/14 20/20/20 21/21/21
f 14/14/14 21/21/21 15/15/15
f 15/15/15 21/21/21 22/22/22
f 15/15/15 22/22/22 9/9/9
f 9/9/9 22/22/22 16/16/16
f 16/16/16 23/23/23 17/17/17
f 17/17/17 23/23/23 18/18/18
f 18/18/18 23/23/23 19/19/19
f 19/19/19 23/23/23 20/20/20
f 20/20/20 23/23/23 21/21/21
f 21/21/21 23/23/23 22/22/22
f 22/22/22 23/23/23 16/16/16
