# Poly-Spinor Nexus 7D Avatar
# Vault: vault_00006
# Avatar ID: 0ebe81e9a28484bf
# Type: 7d_projection
# Rarity: mythical (91.0)
# Generated: 2026-01-07T02:36:14.795245

v -0.84931 -0.435918 -0.768026
v -0.835949 -0.483699 -1.045107
v -0.584691 -0.552405 -1.142959
v -0.199489 -0.601362 -1.025513
v 0.181466 -0.580465 -0.740794
v 0.433442 -0.451342 -0.399555
v 0.485248 -0.210004 -0.1236
v 0.339741 0.102204 0.009211
v 0.069646 0.408565 -0.004767
v -0.208927 0.626653 -0.103332
v -0.37659 0.705181 -0.198189
v -0.352057 0.649802 -0.222529
v -0.121984 0.523444 -0.160425
v 0.250613 0.418829 -0.044164
v 0.643325 0.414997 0.075134
v 0.912899 0.538504 0.163364
v 0.94409 0.748369 0.223277
v 0.692795 0.952529 0.287131
v 0.207754 1.048082 0.388543
v -0.378794 0.966181 0.532901
v -0.890698 0.70073 0.686375
v -1.165649 0.308743 0.791613
v -1.111316 -0.115594 0.801055
v -0.73941 -0.478987 0.707114
v -0.164427 -0.721015 0.549515
v 0.433463 -0.827203 0.393571
v 0.868618 -0.821455 0.291125
v 1.011721 -0.746342 0.247404
v 0.831216 -0.643709 0.214844
v 0.400212 -0.544509 0.119843
v -0.132348 -0.468804 -0.091108
v -0.594612 -0.43 -0.411952

vt 0.0755 0.7157
vt 0.0835 0.7625
vt 0.1205 0.8048
vt 0.199 0.8238
vt 0.2982 0.7812
vt 0.3718 0.6809
vt 0.435 0.5731
vt 0.5465 0.4917
vt 0.7231 0.5037
vt 0.8012 0.5494
vt 0.8281 0.5774
vt 0.829 0.5931
vt 0.7864 0.5923
vt 0.6642 0.5287
vt 0.5912 0.4689
vt 0.5848 0.4513
vt 0.6067 0.4417
vt 0.6499 0.4239
vt 0.7189 0.389
vt 0.8095 0.349
vt 0.8939 0.3267
vt 0.9588 0.3151
vt 0.0165 0.302
vt 0.0915 0.2847
vt 0.2143 0.2966
vt 0.3268 0.373
vt 0.3794 0.424
vt 0.3988 0.4382
vt 0.3951 0.4358
vt 0.3509 0.4441
vt 0.2062 0.5589
vt 0.0996 0.6628

vn -0.194387 -0.968797 0.153774
vn -0.195081 -0.965632 0.17175
vn -0.206106 -0.947231 0.245506
vn -0.271896 -0.87909 0.391501
vn -0.396186 -0.74772 0.532872
vn -0.515619 -0.621093 0.590238
vn -0.590326 -0.553574 0.587428
vn -0.621153 -0.529502 0.577752
vn -0.621563 -0.514877 0.590391
vn -0.604689 -0.499455 0.6204
vn -0.559822 -0.492629 0.66627
vn -0.448998 -0.351853 0.821341
vn -0.344266 -0.12262 0.930831
vn -0.299852 -0.041546 0.953081
vn -0.258789 -0.099398 0.960806
vn -0.150198 -0.197718 0.968684
vn 0.024458 -0.188805 0.98171
vn 0.162329 -0.051429 0.985395
vn 0.213805 0.07248 0.974184
vn 0.22963 0.109928 0.96705
vn 0.251242 0.091706 0.96357
vn 0.27656 0.067918 0.958594
vn 0.287605 0.052123 0.95633
vn 0.278562 0.024384 0.960109
vn 0.257781 -0.025169 0.965876
vn 0.236455 -0.040001 0.970819
vn 0.18937 0.091816 0.977604
vn 0.033853 0.157585 0.986925
vn -0.219621 -0.37249 0.901675
vn -0.266113 -0.854846 0.445447
vn -0.219846 -0.948625 0.227549
vn -0.197005 -0.966651 0.163629

f 1/1/1 2/2/2 3/3/3
f 2/2/2 3/3/3 4/4/4
f 3/3/3 4/4/4 5/5/5
f 4/4/4 5/5/5 6/6/6
f 5/5/5 6/6/6 7/7/7
f 6/6/6 7/7/7 8/8/8
f 7/7/7 8/8/8 9/9/9
f 8/8/8 9/9/9 10/10/10
f 9/9/9 10/10/10 11/11/11
f 10/10/10 11/11/11 12/12/12
f 11/11/11 12/12/12 13/13/13
f 12/12/12 13/13/13 14/14/14
f 13/13/13 14/14/14 15/15/15
f 14/14/14 15/15/15 16/16/16
f 15/15/15 16/16/16 17/17/17
f 16/16/16 17/17/17 18/18/18
f 17/17/17 18/18/18 19/19/19
f 18/18/18 19/19/19 20/20/20
f 19/19/19 20/20/20 21/21/21
f 20/20/20 21/21/21 22/22/22
f 21/21/21 22/22/22 23/23/23
f 22/22/22 23/23/23 24/24/24
f 23/23/23 24/24/24 25/25/25
f 24/24/24 25/25/25 26/26/26
f 25/25/25 26/26/26 27/27/27
f 26/26/26 27/27/27 28/28/28
f 27/27/27 28/28/28 29/29/29
f 28/28/28 29/29/29 30/30/30
f 29/29/29 30/30/30 31/31/31
f 30/30/30 31/31/31 32/32/32
f 31/31/31 32/32/32 1/1/1
f 32/32/32 1/1/1 2/2/2
