# Poly-Spinor Nexus 7D Avatar
# Vault: vault_00025
# Avatar ID: 8374654f9fc47df8
# Type: nexus_crystal
# Rarity: primordial (100.0)
# Generated: 2026-01-07T02:39:56.719458

v -1.392001 -0.523095 0.971021
v 0.222156 -0.191209 1.298235
v -0.308889 0.587798 0.956614
v -0.995046 0.604642 -0.017947
v -1.150157 -0.157521 -0.650887
v -0.619112 -0.936528 -0.309267
v 0.067045 -0.953372 0.665294
v 0.728559 0.645465 1.392137
v -0.325568 1.334693 0.252291
v -1.054128 0.689228 -1.139847
v -0.728559 -0.645465 -1.392137
v 0.325568 -1.334693 -0.252291
v 1.054128 -0.689228 1.139847
v 1.150157 0.157521 0.650887
v 0.619112 0.936528 0.309267
v -0.067045 0.953372 -0.665294
v -0.222156 0.191209 -1.298235
v 0.308889 -0.587798 -0.956614
v 0.995046 -0.604642 0.017947
v 1.392001 0.523095 -0.971021

vt 0.0572 0.3159
vt 0.3869 0.0707
vt 0.827 0.1931
vt 0.9131 0.5049
vt 0.0217 0.6627
vt 0.157 0.5856
vt 0.2612 0.3064
vt 0.6154 0.1942
vt 0.7881 0.4422
vt 0.9078 0.7341
vt 0.1154 0.8058
vt 0.2881 0.5578
vt 0.4078 0.2659
vt 0.5217 0.3373
vt 0.657 0.4144
vt 0.7612 0.6936
vt 0.8869 0.9293
vt 0.327 0.8069
vt 0.4131 0.4951
vt 0.5572 0.6841

vn -0.783784 -0.294535 0.546746
vn -0.164604 -0.221822 0.961093
vn -0.490134 0.46727 0.735817
vn -0.850311 0.476112 0.224251
vn -0.963767 -0.202204 -0.173974
vn -0.526962 -0.849481 -0.026319
vn -0.166786 -0.858323 0.485247
vn 0.55317 0.489313 0.674222
vn -0.036098 0.985873 0.163561
vn -0.408635 0.722855 -0.557224
vn -0.225458 -0.366163 -0.902825
vn 0.306747 -0.884167 -0.352357
vn 0.717891 -0.606641 0.341495
vn 0.886839 0.377555 0.266398
vn 0.382855 0.923721 -0.012688
vn 0.062486 0.803307 -0.592278
vn 0.148762 0.01161 -0.988805
vn 0.524895 -0.582601 -0.620533
vn 0.892796 -0.444326 -0.0741
vn 0.783784 0.294535 -0.546746

f 1/1/1 2/2/2 3/3/3
f 1/1/1 3/3/3 4/4/4
f 1/1/1 4/4/4 5/5/5
f 1/1/1 5/5/5 6/6/6
f 1/1/1 6/6/6 7/7/7
f 1/1/1 7/7/7 2/2/2
f 2/2/2 8/8/8 3/3/3
f 3/3/3 8/8/8 9/9/9
f 3/3/3 9/9/9 4/4/4
f 4/4/4 9/9/9 10/10/10
f 4/4/4 10/10/10 5/5/5
f 5/5/5 10/10/10 11/11/11
f 5/5/5 11/11/11 6/6/6
f 6/6/6 11/11/11 12/12/12
f 6/6/6 12/12/12 7/7/7
f 7/7/7 12/12/12 13/13/13
f 7/7/7 13/13/13 2/2/2
f 2/2/2 13/13/13 8/8/8
f 8/8/8 14/14/14 9/9/9
f 9/9/9 14/14/14 15/15/15
f 9/9/9 15/15/15 10/10/10
f 10/10/10 15/15/15 16/16/16
f 10/10/10 16/16/16 11/11/11
f 11/11/11 16/16/16 17/17/17
f 11/11/11 17/17/17 12/12/12
f 12/12/12 17/17/17 18/18/18
f 12/12/12 18/18/18 13/13/13
f 13/13/13 18/18/18 19/19/19
f 13/13/13 19/19/19 8/8/8
f 8/8/8 19/19/19 14/14/14
f 14/14/14 20/20/20 15/15/15
f 15/15/15 20/20/20 16/16/16
f 16/16/16 20/20/20 17/17/17
f 17/17/17 20/20/20 18/18/18
f 18/18/18 20/20/20 19/19/19
f 19/19/19 20/20/20 14/14/14
