# Poly-Spinor Nexus 7D Avatar
# Vault: vault_00011
# Avatar ID: 6e0e8b78e6d562b8
# Type: nexus_crystal
# Rarity: mythical (91.0)
# Generated: 2026-01-07T02:36:24.175987

v 0.007124 1.924789 0.250238
v 0.378045 0.786508 -1.041921
v -0.488539 0.745496 -0.701792
v -0.864209 0.600584 0.423542
v -0.373296 0.496684 1.208746
v 0.493288 0.537696 0.868617
v 0.868958 0.682608 -0.256716
v -0.099804 0.215477 -1.654574
v -1.175627 0.054462 -0.385447
v -1.075824 -0.161015 1.269128
v 0.099804 -0.215477 1.654574
v 1.175627 -0.054462 0.385447
v 1.075824 0.161015 -1.269128
v 0.373296 -0.496684 -1.208746
v -0.493288 -0.537696 -0.868617
v -0.868958 -0.682608 0.256716
v -0.378045 -0.786508 1.041921
v 0.488539 -0.745496 0.701792
v 0.864209 -0.600584 -0.423542
v -0.007124 -1.924789 -0.250238

vt 0.7494 0.4588
vt 0.6787 0.7781
vt 0.8423 0.7123
vt 0.9033 0.3782
vt 0.8526 0.1511
vt 0.6319 0.2224
vt 0.606 0.5727
vt 0.819 0.9546
vt 0.9926 0.6007
vt 0.0236 0.2256
vt 0.319 0.0454
vt 0.4926 0.3993
vt 0.5236 0.7744
vt 0.3526 0.8489
vt 0.1319 0.7776
vt 0.106 0.4273
vt 0.1787 0.2219
vt 0.3423 0.2877
vt 0.4033 0.6218
vt 0.2494 0.5412

vn 0.00367 0.991648 0.128922
vn 0.230253 0.771356 -0.593291
vn -0.623448 0.641407 -0.447113
vn -0.813788 0.567985 0.123057
vn -0.225193 0.595671 0.771015
vn 0.627677 0.501207 0.595662
vn 0.818017 0.574629 0.025492
vn -0.218195 -0.061121 -0.973989
vn -0.908936 -0.08571 -0.408032
vn -0.902094 -0.217232 0.372877
vn 0.216823 -0.309715 0.925778
vn 0.907901 -0.193805 0.371693
vn 0.900841 -0.121229 -0.416879
vn 0.008193 -0.518508 -0.855034
vn -0.745396 -0.437771 -0.502734
vn -0.816895 -0.562042 0.12958
vn -0.012777 -0.719822 0.694041
vn 0.741714 -0.557177 0.373383
vn 0.812905 -0.516157 -0.269755
vn -0.00367 -0.991648 -0.128922

f 1/1/1 2/2/2 3/3/3
f 1/1/1 3/3/3 4/4/4
f 1/1/1 4/4/4 5/5/5
f 1/1/1 5/5/5 6/6/6
f 1/1/1 6/6/6 7/7/7
f 1/1/1 7/7/7 2/2/2
f 2/2/2 8/8/8 3/3/3
f 3/3/3 8/8/8 9/9/9
f 3/3/3 9/9/9 4/4/4
f 4/4/4 9/9/9 10/10/10
f 4/4/4 10/10/10 5/5/5
f 5/5/5 10/10/10 11/11/11
f 5/5/5 11/11/11 6/6/6
f 6/6/6 11/11/11 12/12/12
f 6/6/6 12/12/12 7/7/7
f 7/7/7 12/12/12 13/13/13
f 7/7/7 13/13/13 2/2/2
f 2/2/2 13/13/13 8/8/8
f 8/8/8 14/14/14 9/9/9
f 9/9/9 14/14/14 15/15/15
f 9/9/9 15/15/15 10/10/10
f 10/10/10 15/15/15 16/16/16
f 10/10/10 16/16/16 11/11/11
f 11/11/11 16/16/16 17/17/17
f 11/11/11 17/17/17 12/12/12
f 12/12/12 17/17/17 18/18/18
f 12/12/12 18/18/18 13/13/13
f 13/13/13 18/18/18 19/19/19
f 13/13/13 19/19/19 8/8/8
f 8/8/8 19/19/19 14/14/14
f 14/14/14 20/20/20 15/15/15
f 15/15/15 20/20/20 16/16/16
f 16/16/16 20/20/20 17/17/17
f 17/17/17 20/20/20 18/18/18
f 18/18/18 20/20/20 19/19/19
f 19/19/19 20/20/20 14/14/14
