# Poly-Spinor Nexus 7D Avatar
# Vault: vault_00012
# Avatar ID: 2d3f16a26ab1326a
# Type: 7d_projection
# Rarity: primordial (100.0)
# Generated: 2026-01-07T02:36:26.093524

v -0.570498 0.605914 -0.186553
v -1.197484 1.155379 -0.349559
v -1.590575 1.359817 -0.509888
v -1.665762 1.089788 -0.59144
v -1.420236 0.444393 -0.522005
v -0.929908 -0.299867 -0.269374
v -0.326207 -0.831673 0.12512
v 0.242051 -0.959774 0.540046
v 0.65148 -0.696846 0.809308
v 0.83894 -0.231311 0.792381
v 0.81684 0.190042 0.449321
v 0.662852 0.397409 -0.118819
v 0.486599 0.374267 -0.69182
v 0.384829 0.236329 -1.01302
v 0.402017 0.134107 -0.899826
v 0.512363 0.144427 -0.331431
v 0.63141 0.219842 0.529522
v 0.653573 0.226545 1.394846
v 0.500829 0.044999 1.964249
v 0.162402 -0.332585 2.043803
v -0.291683 -0.772972 1.617153
v -0.729947 -1.06447 0.840579
v -1.005067 -1.037824 -0.030709
v -1.008386 -0.673633 -0.747143
v -0.712391 -0.12891 -1.152277
v -0.185154 0.338921 -1.219006
v 0.428292 0.511661 -1.028763
v 0.950383 0.334922 -0.714883
v 1.225321 -0.045689 -0.403328
v 1.16515 -0.361526 -0.176847
v 0.773871 -0.371129 -0.069505
v 0.144098 -0.000554 -0.080133

vt 0.8702 0.5702
vt 0.8778 0.5659
vt 0.8874 0.5761
vt 0.9078 0.5919
vt 0.9517 0.6074
vt 0.0496 0.5856
vt 0.1905 0.4557
vt 0.2893 0.341
vt 0.3696 0.2761
vt 0.4572 0.2649
vt 0.5364 0.3434
vt 0.586 0.5486
vt 0.6043 0.769
vt 0.5877 0.8665
vt 0.5512 0.8599
vt 0.5437 0.6773
vt 0.5533 0.2868
vt 0.5531 0.1465
vt 0.5143 0.0798
vt 0.3223 0.057
vt 0.1926 0.1503
vt 0.1543 0.3163
vt 0.1276 0.5068
vt 0.0937 0.6758
vt 0.0285 0.8214
vt 0.8296 0.9023
vt 0.6391 0.8168
vt 0.5539 0.6964
vt 0.4941 0.6012
vt 0.4521 0.5458
vt 0.4288 0.5257
vt 0.4994 0.6615

vn -0.64583 -0.733965 -0.210233
vn -0.569757 -0.39011 0.723319
vn -0.489124 -0.187254 0.851876
vn -0.543005 -0.140466 0.827898
vn -0.609342 -0.149129 0.778757
vn -0.621645 -0.134296 0.771701
vn -0.60817 -0.064759 0.791161
vn -0.614054 0.066404 0.786465
vn -0.684048 0.223158 0.694463
vn -0.804121 0.289728 0.519083
vn -0.897264 0.231566 0.375891
vn -0.94101 0.136345 0.309694
vn -0.955968 0.074354 0.283895
vn -0.966864 0.056191 0.249033
vn -0.968489 -0.127245 0.214097
vn -0.293482 -0.943535 0.153652
vn 0.588539 -0.808405 0.010166
vn 0.716922 -0.697031 -0.013011
vn 0.740079 -0.671404 -0.038733
vn 0.754828 -0.647189 -0.106684
vn 0.784994 -0.586512 -0.19947
vn 0.803651 -0.536832 -0.256819
vn 0.782021 -0.552109 -0.28917
vn 0.704032 -0.610056 -0.363554
vn 0.571844 -0.631823 -0.523254
vn 0.442713 -0.555162 -0.704131
vn 0.373858 -0.459717 -0.805537
vn 0.300217 -0.457509 -0.836992
vn 0.098876 -0.527794 -0.843598
vn -0.130446 -0.517631 -0.845601
vn -0.228118 -0.466186 -0.854771
vn -0.320732 -0.51335 -0.795992

f 1/1/1 2/2/2 3/3/3
f 2/2/2 3/3/3 4/4/4
f 3/3/3 4/4/4 5/5/5
f 4/4/4 5/5/5 6/6/6
f 5/5/5 6/6/6 7/7/7
f 6/6/6 7/7/7 8/8/8
f 7/7/7 8/8/8 9/9/9
f 8/8/8 9/9/9 10/10/10
f 9/9/9 10/10/10 11/11/11
f 10/10/10 11/11/11 12/12/12
f 11/11/11 12/12/12 13/13/13
f 12/12/12 13/13/13 14/14/14
f 13/13/13 14/14/14 15/15/15
f 14/14/14 15/15/15 16/16/16
f 15/15/15 16/16/16 17/17/17
f 16/16/16 17/17/17 18/18/18
f 17/17/17 18/18/18 19/19/19
f 18/18/18 19/19/19 20/20/20
f 19/19/19 20/20/20 21/21/21
f 20/20/20 21/21/21 22/22/22
f 21/21/21 22/22/22 23/23/23
f 22/22/22 23/23/23 24/24/24
f 23/23/23 24/24/24 25/25/25
f 24/24/24 25/25/25 26/26/26
f 25/25/25 26/26/26 27/27/27
f 26/26/26 27/27/27 28/28/28
f 27/27/27 28/28/28 29/29/29
f 28/28/28 29/29/29 30/30/30
f 29/29/29 30/30/30 31/31/31
f 30/30/30 31/31/31 32/32/32
f 31/31/31 32/32/32 1/1/1
f 32/32/32 1/1/1 2/2/2
