# Poly-Spinor Nexus 7D Avatar
# Vault: vault_00019
# Avatar ID: 27b9efa86f01b42b
# Type: 7d_projection
# Rarity: mythical (91.0)
# Generated: 2026-01-07T02:36:39.248982

v -1.105034 -0.411167 -0.272061
v -1.552502 -0.422144 -0.229269
v -1.771952 -0.410138 -0.140556
v -1.697519 -0.351764 -0.06432
v -1.343937 -0.239289 -0.043126
v -0.802291 -0.088471 -0.091707
v -0.211379 0.063328 -0.194868
v 0.285575 0.168205 -0.316205
v 0.58434 0.184039 -0.414808
v 0.649058 0.090315 -0.463818
v 0.518548 -0.101948 -0.463335
v 0.288457 -0.349602 -0.441764
v 0.076163 -0.586573 -0.443973
v -0.019372 -0.740482 -0.510201
v 0.050492 -0.752235 -0.654068
v 0.270375 -0.593262 -0.849268
v 0.569085 -0.275588 -1.031683
v 0.846193 0.148449 -1.117696
v 1.007644 0.597364 -1.032811
v 0.998406 0.980164 -0.74019
v 0.821284 1.219388 -0.258292
v 0.535668 1.271056 0.339268
v 0.236545 1.135515 0.941965
v 0.020713 0.855624 1.432474
v -0.048391 0.502717 1.718553
v 0.034958 0.154815 1.756554
v 0.214233 -0.125675 1.560011
v 0.388364 -0.307363 1.192045
v 0.44649 -0.393525 0.745392
v 0.308287 -0.413538 0.316869
v -0.044131 -0.40621 -0.016338
v -0.554371 -0.402002 -0.212773

vt 0.0567 0.5722
vt 0.0423 0.5451
vt 0.0362 0.5246
vt 0.0325 0.5118
vt 0.028 0.5101
vt 0.0175 0.536
vt 0.9537 0.7303
vt 0.5847 0.7425
vt 0.5486 0.6895
vt 0.522 0.6961
vt 0.4691 0.7291
vt 0.3598 0.7459
vt 0.2706 0.705
vt 0.2458 0.692
vt 0.2607 0.7275
vt 0.3181 0.7916
vt 0.4282 0.825
vt 0.5276 0.7914
vt 0.5852 0.73
vt 0.6235 0.6549
vt 0.6557 0.5554
vt 0.6865 0.4232
vt 0.7173 0.2829
vt 0.7461 0.1714
vt 0.7653 0.091
vt 0.7147 0.0287
vt 0.4156 0.0503
vt 0.3934 0.1253
vt 0.385 0.2145
vt 0.352 0.3246
vt 0.2328 0.5127
vt 0.0999 0.5959

vn -0.028919 0.999555 0.007298
vn -0.064229 0.980685 -0.184745
vn -0.150587 0.909126 -0.388346
vn -0.233597 0.891998 -0.387003
vn -0.272152 0.913903 -0.301189
vn -0.288183 0.89906 -0.329609
vn -0.308654 0.769645 -0.55891
vn -0.317016 0.504607 -0.80304
vn -0.322597 0.316476 -0.892062
vn -0.327367 0.241283 -0.913572
vn -0.219279 0.111401 -0.969282
vn 0.722945 -0.6909 0.002882
vn 0.691371 -0.608667 0.389269
vn 0.708979 -0.575316 0.407873
vn 0.738466 -0.506601 0.444997
vn 0.746431 -0.421153 0.515239
vn 0.743144 -0.379307 0.551238
vn 0.753918 -0.372042 0.541473
vn 0.781659 -0.360544 0.508937
vn 0.822398 -0.315675 0.473298
vn 0.866627 -0.215689 0.449928
vn 0.891166 -0.058339 0.449911
vn 0.875385 0.107898 0.471231
vn 0.843202 0.212664 0.493746
vn 0.837881 0.251552 0.484434
vn 0.863612 0.302184 0.403558
vn 0.848222 0.481814 0.219944
vn 0.638332 0.769741 -0.005479
vn 0.330285 0.9389 -0.096843
vn 0.127798 0.989739 -0.06391
vn 0.027209 0.999621 0.004172
vn -0.013663 0.998712 0.048858

f 1/1/1 2/2/2 3/3/3
f 2/2/2 3/3/3 4/4/4
f 3/3/3 4/4/4 5/5/5
f 4/4/4 5/5/5 6/6/6
f 5/5/5 6/6/6 7/7/7
f 6/6/6 7/7/7 8/8/8
f 7/7/7 8/8/8 9/9/9
f 8/8/8 9/9/9 10/10/10
f 9/9/9 10/10/10 11/11/11
f 10/10/10 11/11/11 12/12/12
f 11/11/11 12/12/12 13/13/13
f 12/12/12 13/13/13 14/14/14
f 13/13/13 14/14/14 15/15/15
f 14/14/14 15/15/15 16/16/16
f 15/15/15 16/16/16 17/17/17
f 16/16/16 17/17/17 18/18/18
f 17/17/17 18/18/18 19/19/19
f 18/18/18 19/19/19 20/20/20
f 19/19/19 20/20/20 21/21/21
f 20/20/20 21/21/21 22/22/22
f 21/21/21 22/22/22 23/23/23
f 22/22/22 23/23/23 24/24/24
f 23/23/23 24/24/24 25/25/25
f 24/24/24 25/25/25 26/26/26
f 25/25/25 26/26/26 27/27/27
f 26/26/26 27/27/27 28/28/28
f 27/27/27 28/28/28 29/29/29
f 28/28/28 29/29/29 30/30/30
f 29/29/29 30/30/30 31/31/31
f 30/30/30 31/31/31 32/32/32
f 31/31/31 32/32/32 1/1/1
f 32/32/32 1/1/1 2/2/2
