# Poly-Spinor Nexus 7D Avatar
# Vault: vault_00008
# Avatar ID: 644fc50949ba25c4
# Type: nexus_crystal
# Rarity: mythical (96.7)
# Generated: 2026-01-07T02:36:18.440545

v -0.235263 -2.21705 0.399454
v 0.000763 -0.960322 -1.048499
v 0.810682 -0.971293 -0.632379
v 1.099777 -0.8462 0.232178
v 0.698699 -0.65832 1.038727
v -0.157605 -0.517712 1.314802
v -0.967524 -0.506741 0.898682
v -1.256619 -0.631834 0.034125
v -0.855541 -0.819713 -0.772424
v 0.78605 -0.368214 -1.58071
v 1.678223 -0.275571 -0.541064
v 1.587315 -0.021501 0.81553
v 0.56658 0.245163 1.694397
v -0.78605 0.368214 1.58071
v -1.678223 0.275571 0.541064
v -1.587315 0.021501 -0.81553
v -0.56658 -0.245163 -1.694397
v 0.157605 0.517712 -1.314802
v 0.967524 0.506741 -0.898682
v 1.256619 0.631834 -0.034125
v 0.855541 0.819713 0.772424
v -0.000763 0.960322 1.048499
v -0.810682 0.971293 0.632379
v -1.099777 0.8462 -0.232178
v -0.698699 0.65832 -1.038727
v 0.235263 2.21705 -0.399454

vt 0.2332 0.4436
vt 0.2501 0.764
vt 0.3607 0.6475
vt 0.3956 0.4472
vt 0.3797 0.2375
vt 0.203 0.1243
vt 0.0768 0.2808
vt 0.0741 0.4923
vt 0.1216 0.6839
vt 0.4303 0.8402
vt 0.4741 0.598
vt 0.4978 0.3489
vt 0.565 0.1112
vt 0.9303 0.1598
vt 0.9741 0.402
vt 0.9978 0.6511
vt 0.065 0.8888
vt 0.703 0.8757
vt 0.5768 0.7192
vt 0.5741 0.5077
vt 0.6216 0.3161
vt 0.7501 0.236
vt 0.8607 0.3525
vt 0.8956 0.5528
vt 0.8797 0.7625
vt 0.7332 0.5564

vn -0.103869 -0.97883 0.176359
vn -0.014366 -0.75915 -0.650757
vn 0.521501 -0.764247 -0.379424
vn 0.710501 -0.681524 0.175251
vn 0.449627 -0.563372 0.693143
vn -0.116468 -0.473793 0.872901
vn -0.65175 -0.463178 0.600574
vn -0.840172 -0.540457 0.044918
vn -0.579875 -0.664053 -0.471994
vn 0.364006 -0.107571 -0.925164
vn 0.91483 -0.071915 -0.397384
vn 0.937342 0.058972 0.343384
vn 0.422571 0.211497 0.881308
vn -0.344131 0.294873 0.891417
vn -0.895155 0.257329 0.363978
vn -0.917706 0.126076 -0.376724
vn -0.402735 -0.024571 -0.914987
vn 0.241977 0.429904 -0.869845
vn 0.74162 0.438472 -0.507683
vn 0.842001 0.532759 0.084866
vn 0.490426 0.660781 0.568199
vn -0.117471 0.743404 0.658446
vn -0.617859 0.727815 0.297549
vn -0.718611 0.630035 -0.294371
vn -0.366298 0.508971 -0.778957
vn 0.103869 0.97883 -0.176359

f 1/1/1 2/2/2 3/3/3
f 1/1/1 3/3/3 4/4/4
f 1/1/1 4/4/4 5/5/5
f 1/1/1 5/5/5 6/6/6
f 1/1/1 6/6/6 7/7/7
f 1/1/1 7/7/7 8/8/8
f 1/1/1 8/8/8 9/9/9
f 1/1/1 9/9/9 2/2/2
f 2/2/2 10/10/10 3/3/3
f 3/3/3 10/10/10 11/11/11
f 3/3/3 11/11/11 4/4/4
f 4/4/4 11/11/11 12/12/12
f 4/4/4 12/12/12 5/5/5
f 5/5/5 12/12/12 13/13/13
f 5/5/5 13/13/13 6/6/6
f 6/6/6 13/13/13 14/14/14
f 6/6/6 14/14/14 7/7/7
f 7/7/7 14/14/14 15/15/15
f 7/7/7 15/15/15 8/8/8
f 8/8/8 15/15/15 16/16/16
f 8/8/8 16/16/16 9/9/9
f 9/9/9 16/16/16 17/17/17
f 9/9/9 17/17/17 2/2/2
f 2/2/2 17/17/17 10/10/10
f 10/10/10 18/18/18 11/11/11
f 11/11/11 18/18/18 19/19/19
f 11/11/11 19/19/19 12/12/12
f 12/12/12 19/19/19 20/20/20
f 12/12/12 20/20/20 13/13/13
f 13/13/13 20/20/20 21/21/21
f 13/13/13 21/21/21 14/14/14
f 14/14/14 21/21/21 22/22/22
f 14/14/14 22/22/22 15/15/15
f 15/15/15 22/22/22 23/23/23
f 15/15/15 23/23/23 16/16/16
f 16/16/16 23/23/23 24/24/24
f 16/16/16 24/24/24 17/17/17
f 17/17/17 24/24/24 25/25/25
f 17/17/17 25/25/25 10/10/10
f 10/10/10 25/25/25 18/18/18
f 18/18/18 26/26/26 19/19/19
f 19/19/19 26/26/26 20/20/20
f 20/20/20 26/26/26 21/21/21
f 21/21/21 26/26/26 22/22/22
f 22/22/22 26/26/26 23/23/23
f 23/23/23 26/26/26 24/24/24
f 24/24/24 26/26/26 25/25/25
f 25/25/25 26/26/26 18/18/18
