# Poly-Spinor Nexus 7D Avatar
# Vault: vault_00016
# Avatar ID: a23cb8d6035abfca
# Type: nexus_crystal
# Rarity: primordial (100.0)
# Generated: 2026-01-07T02:36:33.784536

v -0.146163 1.306102 -0.921281
v 0.148596 0.98683 0.443412
v 0.820596 0.673771 -0.107027
v 0.623279 0.122308 -0.857533
v -0.246038 -0.116095 -1.057599
v -0.918038 0.196964 -0.50716
v -0.720721 0.748427 0.243346
v 0.923732 0.684044 0.823219
v 1.33482 -0.064654 -0.303432
v 0.411088 -0.748698 -1.126652
v -0.923732 -0.684044 -0.823219
v -1.33482 0.064654 0.303432
v -0.411088 0.748698 1.126652
v 0.246038 0.116095 1.057599
v 0.918038 -0.196964 0.50716
v 0.720721 -0.748427 -0.243346
v -0.148596 -0.98683 -0.443412
v -0.820596 -0.673771 0.107027
v -0.623279 -0.122308 0.857533
v 0.146163 -1.306102 0.921281

vt 0.7677 0.6946
vt 0.7262 0.3669
vt 0.6094 0.532
vt 0.5308 0.7971
vt 0.0702 0.9199
vt 0.9664 0.6576
vt 0.872 0.4268
vt 0.6014 0.3022
vt 0.4923 0.5711
vt 0.3299 0.7935
vt 0.1014 0.6978
vt 0.9923 0.4289
vt 0.8299 0.2065
vt 0.5702 0.0801
vt 0.4664 0.3424
vt 0.372 0.5732
vt 0.2262 0.6331
vt 0.1094 0.468
vt 0.0308 0.2029
vt 0.2677 0.3054

vn -0.091067 0.813771 -0.574007
vn 0.091277 0.976867 0.19339
vn 0.651608 0.719469 -0.240356
vn 0.501408 0.299688 -0.811651
vn -0.214333 0.122743 -0.969018
vn -0.772566 0.361395 -0.52205
vn -0.622365 0.781176 0.049246
vn 0.584909 0.346054 0.733572
vn 0.991728 -0.127654 -0.013441
vn 0.453561 -0.629197 -0.631184
vn -0.549806 -0.659734 -0.512312
vn -0.957763 -0.17585 0.227522
vn -0.418769 0.318299 0.850481
vn 0.384985 -0.067909 0.920421
vn 0.844979 -0.393398 0.362281
vn 0.528404 -0.826916 -0.192352
vn -0.272307 -0.93897 -0.210202
vn -0.734781 -0.591327 0.33231
vn -0.417187 -0.166908 0.893363
vn 0.091067 -0.813771 0.574007

f 1/1/1 2/2/2 3/3/3
f 1/1/1 3/3/3 4/4/4
f 1/1/1 4/4/4 5/5/5
f 1/1/1 5/5/5 6/6/6
f 1/1/1 6/6/6 7/7/7
f 1/1/1 7/7/7 2/2/2
f 2/2/2 8/8/8 3/3/3
f 3/3/3 8/8/8 9/9/9
f 3/3/3 9/9/9 4/4/4
f 4/4/4 9/9/9 10/10/10
f 4/4/4 10/10/10 5/5/5
f 5/5/5 10/10/10 11/11/11
f 5/5/5 11/11/11 6/6/6
f 6/6/6 11/11/11 12/12/12
f 6/6/6 12/12/12 7/7/7
f 7/7/7 12/12/12 13/13/13
f 7/7/7 13/13/13 2/2/2
f 2/2/2 13/13/13 8/8/8
f 8/8/8 14/14/14 9/9/9
f 9/9/9 14/14/14 15/15/15
f 9/9/9 15/15/15 10/10/10
f 10/10/10 15/15/15 16/16/16
f 10/10/10 16/16/16 11/11/11
f 11/11/11 16/16/16 17/17/17
f 11/11/11 17/17/17 12/12/12
f 12/12/12 17/17/17 18/18/18
f 12/12/12 18/18/18 13/13/13
f 13/13/13 18/18/18 19/19/19
f 13/13/13 19/19/19 8/8/8
f 8/8/8 19/19/19 14/14/14
f 14/14/14 20/20/20 15/15/15
f 15/15/15 20/20/20 16/16/16
f 16/16/16 20/20/20 17/17/17
f 17/17/17 20/20/20 18/18/18
f 18/18/18 20/20/20 19/19/19
f 19/19/19 20/20/20 14/14/14
