# Poly-Spinor Nexus 7D Avatar
# Vault: vault_00015
# Avatar ID: a3da7b370e0ee236
# Type: nexus_crystal
# Rarity: primordial (98.9)
# Generated: 2026-01-07T02:36:32.093615

v 1.463897 -0.960123 0.418532
v 0.62608 -0.488333 -0.729637
v 1.09628 0.342614 -0.468039
v 1.108407 0.674569 0.251056
v 0.653329 0.257562 0.886156
v 0.07373 -0.594392 0.959016
v -0.193942 -1.239753 0.414772
v 0.051877 -1.192553 -0.336749
v 0.621354 0.411526 -1.229258
v 1.022861 1.379569 -0.412892
v 0.654133 1.308768 0.71439
v -0.207171 0.252438 1.303722
v -0.912471 -0.993983 0.911325
v -0.930662 -1.491914 -0.167319
v -0.248045 -0.866404 -1.119968
v -0.349852 0.151749 -1.008659
v 0.120348 0.982696 -0.74706
v 0.132475 1.314651 -0.027965
v -0.322602 0.897644 0.607135
v -0.902202 0.04569 0.679995
v -1.169873 -0.599672 0.135751
v -0.924054 -0.552471 -0.615771
v -1.463897 0.960123 -0.418532

vt 0.4076 0.4253
vt 0.3946 0.7366
vt 0.5482 0.6232
vt 0.587 0.4392
vt 0.5598 0.2133
vt 0.2696 0.1777
vt 0.2253 0.3984
vt 0.2569 0.5875
vt 0.5931 0.8265
vt 0.6485 0.5751
vt 0.6762 0.3554
vt 0.8594 0.0781
vt 0.1318 0.3109
vt 0.1612 0.5302
vt 0.2056 0.7843
vt 0.9349 0.8849
vt 0.7306 0.7058
vt 0.734 0.5067
vt 0.8049 0.3196
vt 0.9919 0.2946
vt 0.0754 0.4672
vt 0.0858 0.6654
vt 0.9076 0.5747

vn 0.813276 -0.533402 0.232518
vn 0.61578 -0.472829 -0.630275
vn 0.912059 -0.033643 -0.408677
vn 0.922511 0.222057 0.315696
vn 0.542672 0.025906 0.839545
vn 0.243458 -0.41391 0.877159
vn 0.161131 -0.897096 0.411407
vn 0.336578 -0.879542 -0.336334
vn 0.191732 0.093859 -0.976949
vn 0.444997 0.742264 -0.501021
vn 0.212256 0.821062 0.52991
vn -0.202593 0.31749 0.926367
vn -0.565577 -0.272611 0.778335
vn -0.651807 -0.750223 -0.110964
vn -0.201718 -0.450073 -0.869911
vn -0.273082 0.243731 -0.930603
vn -0.105931 0.775075 -0.622926
vn -0.219928 0.961046 0.167398
vn -0.49627 0.591764 0.635241
vn -0.811108 0.131403 0.569945
vn -0.968104 -0.241974 -0.064984
vn -0.633795 -0.161291 -0.756498
vn -0.813276 0.533401 -0.232517

f 1/1/1 2/2/2 3/3/3
f 1/1/1 3/3/3 4/4/4
f 1/1/1 4/4/4 5/5/5
f 1/1/1 5/5/5 6/6/6
f 1/1/1 6/6/6 7/7/7
f 1/1/1 7/7/7 8/8/8
f 1/1/1 8/8/8 2/2/2
f 2/2/2 9/9/9 3/3/3
f 3/3/3 9/9/9 10/10/10
f 3/3/3 10/10/10 4/4/4
f 4/4/4 10/10/10 11/11/11
f 4/4/4 11/11/11 5/5/5
f 5/5/5 11/11/11 12/12/12
f 5/5/5 12/12/12 6/6/6
f 6/6/6 12/12/12 13/13/13
f 6/6/6 13/13/13 7/7/7
f 7/7/7 13/13/13 14/14/14
f 7/7/7 14/14/14 8/8/8
f 8/8/8 14/14/14 15/15/15
f 8/8/8 15/15/15 2/2/2
f 2/2/2 15/15/15 9/9/9
f 9/9/9 16/16/16 10/10/10
f 10/10/10 16/16/16 17/17/17
f 10/10/10 17/17/17 11/11/11
f 11/11/11 17/17/17 18/18/18
f 11/11/11 18/18/18 12/12/12
f 12/12/12 18/18/18 19/19/19
f 12/12/12 19/19/19 13/13/13
f 13/13/13 19/19/19 20/20/20
f 13/13/13 20/20/20 14/14/14
f 14/14/14 20/20/20 21/21/21
f 14/14/14 21/21/21 15/15/15
f 15/15/15 21/21/21 22/22/22
f 15/15/15 22/22/22 9/9/9
f 9/9/9 22/22/22 16/16/16
f 16/16/16 23/23/23 17/17/17
f 17/17/17 23/23/23 18/18/18
f 18/18/18 23/23/23 19/19/19
f 19/19/19 23/23/23 20/20/20
f 20/20/20 23/23/23 21/21/21
f 21/21/21 23/23/23 22/22/22
f 22/22/22 23/23/23 16/16/16
