# Poly-Spinor Nexus 7D Avatar
# Vault: vault_00029
# Avatar ID: d846165f07453858
# Type: 7d_projection
# Rarity: mythical (93.9)
# Generated: 2026-01-07T02:40:05.404413

v 0.057497 0.171232 -0.093219
v 0.423381 0.9752 -0.437727
v 0.540086 1.475741 -0.656811
v 0.317924 1.536427 -0.658425
v -0.112544 1.211111 -0.420127
v -0.471354 0.703307 -0.001164
v -0.493798 0.253265 0.470546
v -0.091849 0.016065 0.835831
v 0.583973 -0.003416 0.956965
v 1.220769 0.072842 0.769116
v 1.515075 0.088357 0.311275
v 1.341267 -0.043998 -0.277818
v 0.818772 -0.287981 -0.801467
v 0.238845 -0.509423 -1.072335
v -0.10649 -0.56279 -0.981344
v -0.093488 -0.384753 -0.541422
v 0.16511 -0.037807 0.112363
v 0.392702 0.321949 0.768127
v 0.319852 0.532688 1.211584
v -0.146629 0.516946 1.301375
v -0.856262 0.319634 1.016789
v -1.490062 0.071768 0.460702
v -1.736238 -0.096894 -0.181511
v -1.465726 -0.141632 -0.709565
v -0.806579 -0.130009 -0.976109
v -0.074518 -0.193812 -0.930756
v 0.400148 -0.43342 -0.627384
v 0.449773 -0.833197 -0.196372
v 0.150034 -1.242764 0.204805
v -0.239764 -1.44183 0.444037
v -0.438634 -1.256948 0.453645
v -0.311272 -0.665858 0.246396

vt 0.6984 0.6517
vt 0.6848 0.6243
vt 0.6942 0.626
vt 0.7175 0.6265
vt 0.7647 0.6059
vt 0.844 0.5004
vt 0.9246 0.2761
vt 0.9724 0.0354
vt 0.4991 0.1744
vt 0.5095 0.3213
vt 0.5093 0.4356
vt 0.4948 0.565
vt 0.4462 0.7373
vt 0.3198 0.8462
vt 0.2202 0.8318
vt 0.2121 0.799
vt 0.4642 0.3136
vt 0.6093 0.1859
vt 0.6639 0.1508
vt 0.794 0.1246
vt 0.9431 0.2331
vt 0.9923 0.4047
vt 0.0089 0.5331
vt 0.0153 0.6429
vt 0.0254 0.7782
vt 0.1916 0.9301
vt 0.3687 0.7598
vt 0.3288 0.5651
vt 0.2691 0.4484
vt 0.2238 0.4061
vt 0.1966 0.3955
vt 0.1804 0.397

vn -0.812203 0.167795 -0.558723
vn -0.030051 0.42003 0.907012
vn 0.067184 0.421087 0.904528
vn 0.029708 0.526406 0.849714
vn -0.111441 0.656548 0.746007
vn -0.185304 0.705951 0.68359
vn -0.16666 0.74045 0.651121
vn -0.109625 0.825389 0.553819
vn -0.08797 0.948937 0.30295
vn -0.15293 0.988002 0.021551
vn -0.240798 0.965063 -0.103297
vn -0.290924 0.947437 -0.133138
vn -0.285044 0.942234 -0.175912
vn -0.250364 0.930781 -0.266393
vn -0.248465 0.909826 -0.332388
vn -0.313244 0.890244 -0.330671
vn -0.273481 -0.77787 0.565798
vn 0.094952 -0.887691 0.450544
vn 0.114603 -0.900257 0.420004
vn 0.132426 -0.927071 0.350717
vn 0.177312 -0.952294 0.248386
vn 0.201192 -0.961517 0.187099
vn 0.16481 -0.974084 0.154913
vn 0.076626 -0.995908 0.047905
vn -0.009588 -0.973992 -0.226377
vn -0.009672 -0.854688 -0.519051
vn 0.036084 -0.758079 -0.651164
vn 0.026941 -0.711287 -0.702385
vn -0.106758 -0.61593 -0.780534
vn -0.266895 -0.415394 -0.869606
vn -0.293443 -0.292445 -0.910147
vn -0.303837 -0.246939 -0.920165

f 1/1/1 2/2/2 3/3/3
f 2/2/2 3/3/3 4/4/4
f 3/3/3 4/4/4 5/5/5
f 4/4/4 5/5/5 6/6/6
f 5/5/5 6/6/6 7/7/7
f 6/6/6 7/7/7 8/8/8
f 7/7/7 8/8/8 9/9/9
f 8/8/8 9/9/9 10/10/10
f 9/9/9 10/10/10 11/11/11
f 10/10/10 11/11/11 12/12/12
f 11/11/11 12/12/12 13/13/13
f 12/12/12 13/13/13 14/14/14
f 13/13/13 14/14/14 15/15/15
f 14/14/14 15/15/15 16/16/16
f 15/15/15 16/16/16 17/17/17
f 16/16/16 17/17/17 18/18/18
f 17/17/17 18/18/18 19/19/19
f 18/18/18 19/19/19 20/20/20
f 19/19/19 20/20/20 21/21/21
f 20/20/20 21/21/21 22/22/22
f 21/21/21 22/22/22 23/23/23
f 22/22/22 23/23/23 24/24/24
f 23/23/23 24/24/24 25/25/25
f 24/24/24 25/25/25 26/26/26
f 25/25/25 26/26/26 27/27/27
f 26/26/26 27/27/27 28/28/28
f 27/27/27 28/28/28 29/29/29
f 28/28/28 29/29/29 30/30/30
f 29/29/29 30/30/30 31/31/31
f 30/30/30 31/31/31 32/32/32
f 31/31/31 32/32/32 1/1/1
f 32/32/32 1/1/1 2/2/2
