# Poly-Spinor Nexus 7D Avatar
# Vault: vault_00023
# Avatar ID: 95891047edbd9f93
# Type: 7d_projection
# Rarity: primordial (100.0)
# Generated: 2026-01-07T02:39:50.783258

v 0.990738 0.088101 0.829404
v 1.420626 -0.51239 1.135841
v 1.522409 -1.054947 1.091493
v 1.254115 -1.341684 0.695967
v 0.694034 -1.284948 0.128229
v 0.014341 -0.929382 -0.331976
v -0.577325 -0.415852 -0.447219
v -0.907973 0.086989 -0.15096
v -0.896813 0.446798 0.412598
v -0.580632 0.600236 0.963057
v -0.098825 0.549348 1.233873
v 0.356114 0.337024 1.115178
v 0.605164 0.023809 0.709595
v 0.543651 -0.320558 0.269605
v 0.176131 -0.614292 0.051697
v -0.38578 -0.764925 0.169421
v -0.961218 -0.688989 0.527814
v -1.360458 -0.349577 0.875414
v -1.447797 0.206533 0.9437
v -1.186382 0.83879 0.595252
v -0.650537 1.347539 -0.101463
v -0.001701 1.54793 -0.909788
v 0.564228 1.352784 -1.550121
v 0.881096 0.822883 -1.83981
v 0.867293 0.154091 -1.769815
v 0.552963 -0.399811 -1.480099
v 0.070174 -0.636495 -1.155928
v -0.391347 -0.495671 -0.912184
v -0.648662 -0.086401 -0.73636
v -0.58879 0.363551 -0.522055
v -0.208995 0.612921 -0.167493
v 0.380158 0.516594 0.327136

vt 0.5141 0.2788
vt 0.4449 0.2947
vt 0.4036 0.3305
vt 0.3696 0.3847
vt 0.3288 0.4721
vt 0.2525 0.6092
vt 0.0993 0.6786
vt 0.9848 0.5522
vt 0.9264 0.3757
vt 0.8724 0.2274
vt 0.7783 0.1352
vt 0.6206 0.1319
vt 0.5063 0.2249
vt 0.4152 0.3715
vt 0.2944 0.4743
vt 0.1757 0.4379
vt 0.099 0.3664
vt 0.04 0.3226
vt 0.9774 0.3176
vt 0.9021 0.3762
vt 0.8216 0.5216
vt 0.7502 0.6691
vt 0.6871 0.7589
vt 0.6196 0.8154
vt 0.528 0.853
vt 0.4004 0.8625
vt 0.2675 0.839
vt 0.1436 0.8072
vt 0.0211 0.7687
vt 0.912 0.7057
vt 0.8023 0.5806
vt 0.649 0.3499

vn 0.688558 0.111328 -0.716585
vn 0.71956 0.167102 -0.674026
vn 0.725537 0.214679 -0.653841
vn 0.703397 0.311788 -0.638765
vn 0.670574 0.471643 -0.572611
vn 0.647041 0.596149 -0.475336
vn 0.632164 0.648203 -0.4245
vn 0.59076 0.681569 -0.431818
vn 0.492688 0.745048 -0.449624
vn 0.376673 0.818975 -0.432895
vn 0.301212 0.852017 -0.42818
vn 0.19933 0.84668 -0.493356
vn -0.013369 0.822068 -0.569233
vn -0.217945 0.791802 -0.57057
vn -0.309608 0.751088 -0.583104
vn -0.386252 0.610072 -0.691825
vn -0.532693 0.304207 -0.789744
vn -0.668069 0.054872 -0.742073
vn -0.745592 -0.022537 -0.666021
vn -0.77461 -0.036213 -0.631401
vn -0.773918 -0.061734 -0.63027
vn -0.764859 -0.090876 -0.637755
vn -0.750431 -0.093018 -0.654371
vn -0.709479 -0.079735 -0.700201
vn -0.625755 -0.093406 -0.774407
vn -0.537423 -0.127928 -0.833553
vn -0.482358 -0.08583 -0.871759
vn -0.337745 0.103793 -0.935497
vn 0.083889 0.304882 -0.948688
vn 0.476858 0.257302 -0.840477
vn 0.62026 0.126758 -0.774086
vn 0.657968 0.074916 -0.749311

f 1/1/1 2/2/2 3/3/3
f 2/2/2 3/3/3 4/4/4
f 3/3/3 4/4/4 5/5/5
f 4/4/4 5/5/5 6/6/6
f 5/5/5 6/6/6 7/7/7
f 6/6/6 7/7/7 8/8/8
f 7/7/7 8/8/8 9/9/9
f 8/8/8 9/9/9 10/10/10
f 9/9/9 10/10/10 11/11/11
f 10/10/10 11/11/11 12/12/12
f 11/11/11 12/12/12 13/13/13
f 12/12/12 13/13/13 14/14/14
f 13/13/13 14/14/14 15/15/15
f 14/14/14 15/15/15 16/16/16
f 15/15/15 16/16/16 17/17/17
f 16/16/16 17/17/17 18/18/18
f 17/17/17 18/18/18 19/19/19
f 18/18/18 19/19/19 20/20/20
f 19/19/19 20/20/20 21/21/21
f 20/20/20 21/21/21 22/22/22
f 21/21/21 22/22/22 23/23/23
f 22/22/22 23/23/23 24/24/24
f 23/23/23 24/24/24 25/25/25
f 24/24/24 25/25/25 26/26/26
f 25/25/25 26/26/26 27/27/27
f 26/26/26 27/27/27 28/28/28
f 27/27/27 28/28/28 29/29/29
f 28/28/28 29/29/29 30/30/30
f 29/29/29 30/30/30 31/31/31
f 30/30/30 31/31/31 32/32/32
f 31/31/31 32/32/32 1/1/1
f 32/32/32 1/1/1 2/2/2
