# Poly-Spinor Nexus 7D Avatar
# Vault: vault_00005
# Avatar ID: dbe025a31433b7a5
# Type: nexus_crystal
# Rarity: mythical (91.0)
# Generated: 2026-01-07T02:36:13.045076

v 0.256556 0.492163 -1.972398
v -0.410658 -0.471737 -0.880651
v -0.8062 0.125292 -0.783127
v -0.679385 0.745028 -0.611992
v -0.1045 1.024437 -0.467495
v 0.581695 0.799846 -0.434281
v 0.977237 0.202817 -0.531806
v 0.850422 -0.416919 -0.70294
v 0.275537 -0.696328 -0.847437
v -1.126685 -0.547599 -0.283191
v -1.344835 0.440163 -0.065095
v -0.7752 1.170084 0.191133
v 0.248538 1.214586 0.335398
v 1.126685 0.547599 0.283191
v 1.344835 -0.440163 0.065095
v 0.7752 -1.170084 -0.191133
v -0.248538 -1.214586 -0.335398
v -0.581695 -0.799846 0.434281
v -0.977237 -0.202817 0.531806
v -0.850422 0.416919 0.70294
v -0.275537 0.696328 0.847437
v 0.410658 0.471737 0.880651
v 0.8062 -0.125292 0.783127
v 0.679385 -0.745028 0.611992
v 0.1045 -1.024437 0.467495
v -0.256556 -0.492163 1.972398

vt 0.6735 0.9127
vt 0.136 0.8034
vt 0.9755 0.7435
vt 0.8677 0.6736
vt 0.7662 0.6357
vt 0.6499 0.6317
vt 0.5326 0.6558
vt 0.4275 0.7032
vt 0.31 0.7696
vt 0.072 0.5708
vt 0.9497 0.5146
vt 0.8431 0.4569
vt 0.7179 0.4159
vt 0.572 0.4292
vt 0.4497 0.4854
vt 0.3431 0.5431
vt 0.2179 0.5841
vt 0.1499 0.3683
vt 0.0326 0.3442
vt 0.9275 0.2968
vt 0.81 0.2304
vt 0.636 0.1966
vt 0.4755 0.2565
vt 0.3677 0.3264
vt 0.2662 0.3643
vt 0.1735 0.0873

vn 0.12521 0.240197 -0.962615
vn -0.437204 -0.518077 -0.735152
vn -0.738327 -0.014179 -0.674294
vn -0.574103 0.631136 -0.521606
vn 0.006891 0.94073 -0.339087
vn 0.569548 0.771958 -0.282305
vn 0.876868 0.279949 -0.390808
vn 0.719802 -0.351634 -0.59853
vn 0.13165 -0.67496 -0.726015
vn -0.784023 -0.596033 -0.173359
vn -0.994975 0.098105 -0.01999
vn -0.563583 0.798233 0.212601
vn 0.192939 0.922617 0.333995
vn 0.765378 0.560265 0.316702
vn 0.974498 -0.137388 0.177423
vn 0.542676 -0.838339 -0.051871
vn -0.211906 -0.959002 -0.188176
vn -0.666617 -0.699386 0.257839
vn -0.905847 -0.145402 0.397869
vn -0.632353 0.479424 0.608509
vn 0.002507 0.703442 0.710748
vn 0.541493 0.459354 0.704116
vn 0.772788 -0.10985 0.625085
vn 0.494676 -0.743535 0.449946
vn -0.131448 -0.950796 0.28055
vn -0.12521 -0.240197 0.962615

f 1/1/1 2/2/2 3/3/3
f 1/1/1 3/3/3 4/4/4
f 1/1/1 4/4/4 5/5/5
f 1/1/1 5/5/5 6/6/6
f 1/1/1 6/6/6 7/7/7
f 1/1/1 7/7/7 8/8/8
f 1/1/1 8/8/8 9/9/9
f 1/1/1 9/9/9 2/2/2
f 2/2/2 10/10/10 3/3/3
f 3/3/3 10/10/10 11/11/11
f 3/3/3 11/11/11 4/4/4
f 4/4/4 11/11/11 12/12/12
f 4/4/4 12/12/12 5/5/5
f 5/5/5 12/12/12 13/13/13
f 5/5/5 13/13/13 6/6/6
f 6/6/6 13/13/13 14/14/14
f 6/6/6 14/14/14 7/7/7
f 7/7/7 14/14/14 15/15/15
f 7/7/7 15/15/15 8/8/8
f 8/8/8 15/15/15 16/16/16
f 8/8/8 16/16/16 9/9/9
f 9/9/9 16/16/16 17/17/17
f 9/9/9 17/17/17 2/2/2
f 2/2/2 17/17/17 10/10/10
f 10/10/10 18/18/18 11/11/11
f 11/11/11 18/18/18 19/19/19
f 11/11/11 19/19/19 12/12/12
f 12/12/12 19/19/19 20/20/20
f 12/12/12 20/20/20 13/13/13
f 13/13/13 20/20/20 21/21/21
f 13/13/13 21/21/21 14/14/14
f 14/14/14 21/21/21 22/22/22
f 14/14/14 22/22/22 15/15/15
f 15/15/15 22/22/22 23/23/23
f 15/15/15 23/23/23 16/16/16
f 16/16/16 23/23/23 24/24/24
f 16/16/16 24/24/24 17/17/17
f 17/17/17 24/24/24 25/25/25
f 17/17/17 25/25/25 10/10/10
f 10/10/10 25/25/25 18/18/18
f 18/18/18 26/26/26 19/19/19
f 19/19/19 26/26/26 20/20/20
f 20/20/20 26/26/26 21/21/21
f 21/21/21 26/26/26 22/22/22
f 22/22/22 26/26/26 23/23/23
f 23/23/23 26/26/26 24/24/24
f 24/24/24 26/26/26 25/25/25
f 25/25/25 26/26/26 18/18/18
