# Poly-Spinor Nexus 7D Avatar
# Vault: vault_00020
# Avatar ID: 3bb5360ad7fefbea
# Type: nexus_crystal
# Rarity: primordial (100.0)
# Generated: 2026-01-07T02:36:41.041551

v 0.654688 -1.501764 0.848594
v -0.815551 -0.814182 0.525454
v -0.343821 -1.133872 -0.404243
v 0.689959 -0.820278 -0.646832
v 1.25201 -0.186994 0.040276
v 0.78028 0.132696 0.969972
v -0.2535 -0.180898 1.212561
v -1.38203 -0.82002 -0.384964
v -0.07822 -0.8253 -1.400193
v 1.30381 -0.00528 -1.015229
v 1.38203 0.82002 0.384964
v 0.07822 0.8253 1.400193
v -1.30381 0.00528 1.015229
v -1.25201 0.186994 -0.040276
v -0.78028 -0.132696 -0.969972
v 0.2535 0.180898 -1.212561
v 0.815551 0.814182 -0.525454
v 0.343821 1.133872 0.404243
v -0.689959 0.820278 0.646832
v -0.654688 1.501764 -0.848594

vt 0.3154 0.3479
vt 0.1249 0.3638
vt 0.2031 0.6047
vt 0.3613 0.6728
vt 0.4764 0.4899
vt 0.5268 0.2179
vt 0.0986 0.08
vt 0.0852 0.5748
vt 0.235 0.8298
vt 0.4994 0.7106
vt 0.5852 0.4252
vt 0.735 0.1702
vt 0.9994 0.2894
vt 0.9764 0.5101
vt 0.0268 0.7821
vt 0.5986 0.92
vt 0.6249 0.6362
vt 0.7031 0.3953
vt 0.8613 0.3272
vt 0.8154 0.6521

vn 0.354845 -0.813964 0.459943
vn -0.443417 -0.761111 0.473384
vn -0.131138 -0.977817 -0.163329
vn 0.54785 -0.771849 -0.322661
vn 0.925936 -0.345722 0.152049
vn 0.609648 -0.119818 0.783565
vn -0.06934 -0.325787 0.942897
vn -0.930403 -0.291194 -0.222613
vn -0.230232 -0.372155 -0.899163
vn 0.624252 0.071718 -0.777924
vn 0.791647 0.609481 0.04276
vn 0.093731 0.685269 0.722234
vn -0.762403 0.24518 0.598856
vn -0.941913 0.205061 -0.265988
vn -0.474024 0.054472 -0.878826
vn 0.239949 0.355241 -0.903454
vn 0.499433 0.809927 -0.307546
vn 0.036322 0.949557 0.311484
vn -0.679634 0.653335 0.333542
vn -0.354845 0.813964 -0.459943

f 1/1/1 2/2/2 3/3/3
f 1/1/1 3/3/3 4/4/4
f 1/1/1 4/4/4 5/5/5
f 1/1/1 5/5/5 6/6/6
f 1/1/1 6/6/6 7/7/7
f 1/1/1 7/7/7 2/2/2
f 2/2/2 8/8/8 3/3/3
f 3/3/3 8/8/8 9/9/9
f 3/3/3 9/9/9 4/4/4
f 4/4/4 9/9/9 10/10/10
f 4/4/4 10/10/10 5/5/5
f 5/5/5 10/10/10 11/11/11
f 5/5/5 11/11/11 6/6/6
f 6/6/6 11/11/11 12/12/12
f 6/6/6 12/12/12 7/7/7
f 7/7/7 12/12/12 13/13/13
f 7/7/7 13/13/13 2/2/2
f 2/2/2 13/13/13 8/8/8
f 8/8/8 14/14/14 9/9/9
f 9/9/9 14/14/14 15/15/15
f 9/9/9 15/15/15 10/10/10
f 10/10/10 15/15/15 16/16/16
f 10/10/10 16/16/16 11/11/11
f 11/11/11 16/16/16 17/17/17
f 11/11/11 17/17/17 12/12/12
f 12/12/12 17/17/17 18/18/18
f 12/12/12 18/18/18 13/13/13
f 13/13/13 18/18/18 19/19/19
f 13/13/13 19/19/19 8/8/8
f 8/8/8 19/19/19 14/14/14
f 14/14/14 20/20/20 15/15/15
f 15/15/15 20/20/20 16/16/16
f 16/16/16 20/20/20 17/17/17
f 17/17/17 20/20/20 18/18/18
f 18/18/18 20/20/20 19/19/19
f 19/19/19 20/20/20 14/14/14
