# Poly-Spinor Nexus 7D Avatar
# Vault: vault_00018
# Avatar ID: 1dfc22ceca9ff967
# Type: nexus_crystal
# Rarity: mythical (91.0)
# Generated: 2026-01-07T02:36:37.408954

v 0.365739 0.96178 -1.251245
v 0.697004 -0.454828 -0.845016
v 0.112203 -0.456885 -1.017536
v -0.468056 -0.095152 -0.909096
v -0.772261 0.461114 -0.570437
v -0.658072 0.951628 -0.160021
v -0.17892 1.146874 0.130113
v 0.440996 0.955494 0.164208
v 0.911609 0.467038 -0.073688
v 1.012715 -0.089942 -0.472262
v 0.451249 -1.239421 -0.820791
v -0.478624 -0.952351 -0.871935
v -1.184544 -0.219666 -0.515091
v -1.336202 0.615803 0.08277
v -0.862637 1.163131 0.641902
v 0.014566 1.166218 0.900681
v 0.884953 0.623617 0.738021
v 1.341261 -0.21078 0.230033
v 1.169978 -0.946551 -0.38559
v 0.453178 -1.096014 -0.010853
v -0.131623 -1.098072 -0.183372
v -0.711882 -0.736338 -0.074932
v -1.016087 -0.180073 0.263726
v -0.901898 0.310441 0.674142
v -0.422746 0.505687 0.964276
v 0.19717 0.314307 0.998372
v 0.667783 -0.174149 0.760475
v 0.768889 -0.731129 0.361901
v -0.365739 -0.96178 1.251245

vt 0.6922 0.7809
vt 0.408 0.7524
vt 0.2883 0.8621
vt 0.0319 0.846
vt 0.9143 0.6799
vt 0.8463 0.5437
vt 0.7746 0.4645
vt 0.6812 0.4507
vt 0.5754 0.5229
vt 0.4859 0.6384
vt 0.3056 0.6772
vt 0.1759 0.7183
vt 0.0292 0.6286
vt 0.9313 0.4821
vt 0.8516 0.3672
vt 0.748 0.2907
vt 0.5977 0.3095
vt 0.4752 0.4466
vt 0.3917 0.5798
vt 0.3124 0.5029
vt 0.231 0.5523
vt 0.1277 0.5232
vt 0.0279 0.4204
vt 0.9472 0.3042
vt 0.8608 0.1909
vt 0.6608 0.1133
vt 0.4594 0.2346
vt 0.379 0.3954
vt 0.1922 0.2191

vn 0.225765 0.593692 -0.772373
vn 0.545833 -0.104063 -0.831407
vn 0.005747 -0.157323 -0.987531
vn -0.415726 0.041944 -0.908522
vn -0.588402 0.397183 -0.704294
vn -0.43765 0.799318 -0.411769
vn 0.033776 0.991415 -0.126314
vn 0.524696 0.85075 -0.030296
vn 0.822304 0.54642 -0.158876
vn 0.862181 0.191659 -0.468947
vn 0.244912 -0.85069 -0.465129
vn -0.445981 -0.696477 -0.562157
vn -0.859627 -0.319413 -0.398769
vn -0.985125 0.162398 -0.056176
vn -0.644571 0.638201 0.420985
vn 0.090659 0.718597 0.689492
vn 0.653007 0.432105 0.621986
vn 0.928735 -0.002077 0.370738
vn 0.848762 -0.527045 -0.04275
vn 0.139207 -0.975412 0.170859
vn -0.395876 -0.918297 0.003491
vn -0.766681 -0.637987 0.071915
vn -0.897148 -0.282133 0.339891
vn -0.688701 0.060463 0.72252
vn -0.161989 0.202052 0.965885
vn 0.330381 0.061711 0.941828
vn 0.589049 -0.26334 0.763985
vn 0.545742 -0.681452 0.487636
vn -0.225765 -0.593692 0.772373

f 1/1/1 2/2/2 3/3/3
f 1/1/1 3/3/3 4/4/4
f 1/1/1 4/4/4 5/5/5
f 1/1/1 5/5/5 6/6/6
f 1/1/1 6/6/6 7/7/7
f 1/1/1 7/7/7 8/8/8
f 1/1/1 8/8/8 9/9/9
f 1/1/1 9/9/9 10/10/10
f 1/1/1 10/10/10 2/2/2
f 2/2/2 11/11/11 3/3/3
f 3/3/3 11/11/11 12/12/12
f 3/3/3 12/12/12 4/4/4
f 4/4/4 12/12/12 13/13/13
f 4/4/4 13/13/13 5/5/5
f 5/5/5 13/13/13 14/14/14
f 5/5/5 14/14/14 6/6/6
f 6/6/6 14/14/14 15/15/15
f 6/6/6 15/15/15 7/7/7
f 7/7/7 15/15/15 16/16/16
f 7/7/7 16/16/16 8/8/8
f 8/8/8 16/16/16 17/17/17
f 8/8/8 17/17/17 9/9/9
f 9/9/9 17/17/17 18/18/18
f 9/9/9 18/18/18 10/10/10
f 10/10/10 18/18/18 19/19/19
f 10/10/10 19/19/19 2/2/2
f 2/2/2 19/19/19 11/11/11
f 11/11/11 20/20/20 12/12/12
f 12/12/12 20/20/20 21/21/21
f 12/12/12 21/21/21 13/13/13
f 13/13/13 21/21/21 22/22/22
f 13/13/13 22/22/22 14/14/14
f 14/14/14 22/22/22 23/23/23
f 14/14/14 23/23/23 15/15/15
f 15/15/15 23/23/23 24/24/24
f 15/15/15 24/24/24 16/16/16
f 16/16/16 24/24/24 25/25/25
f 16/16/16 25/25/25 17/17/17
f 17/17/17 25/25/25 26/26/26
f 17/17/17 26/26/26 18/18/18
f 18/18/18 26/26/26 27/27/27
f 18/18/18 27/27/27 19/19/19
f 19/19/19 27/27/27 28/28/28
f 19/19/19 28/28/28 11/11/11
f 11/11/11 28/28/28 20/20/20
f 20/20/20 29/29/29 21/21/21
f 21/21/21 29/29/29 22/22/22
f 22/22/22 29/29/29 23/23/23
f 23/23/23 29/29/29 24/24/24
f 24/24/24 29/29/29 25/25/25
f 25/25/25 29/29/29 26/26/26
f 26/26/26 29/29/29 27/27/27
f 27/27/27 29/29/29 28/28/28
f 28/28/28 29/29/29 20/20/20
