# Poly-Spinor Nexus 7D Avatar
# Vault: vault_00031
# Avatar ID: b192e605f20aae87
# Type: nexus_crystal
# Rarity: primordial (100.0)
# Generated: 2026-01-07T02:40:09.014047

v -1.278399 -0.764971 0.258183
v -0.303771 -0.17323 0.934188
v -0.636246 0.313753 0.730812
v -0.870407 0.534615 0.22575
v -0.896688 0.386012 -0.344675
v -0.70279 -0.062523 -0.713553
v -0.379442 -0.601116 -0.708283
v -0.077941 -0.977752 -0.33133
v 0.060637 -1.0162 0.240924
v -0.02855 -0.69847 0.740716
v -0.070037 0.519188 1.191516
v -0.522288 1.084143 0.626087
v -0.730155 1.141815 -0.232294
v -0.596375 0.665219 -0.981983
v -0.183544 -0.12264 -1.27219
v 0.315169 -0.853115 -0.967126
v 0.666411 -1.184407 -0.209533
v 0.705832 -0.961503 0.646103
v 0.414986 -0.2887 1.19942
v 0.548495 0.33675 0.762066
v 0.21602 0.823733 0.55869
v -0.018141 1.044595 0.053628
v -0.044421 0.895992 -0.516797
v 0.149476 0.447457 -0.885675
v 0.472824 -0.091135 -0.880405
v 0.774325 -0.467771 -0.503452
v 0.912903 -0.50622 0.068802
v 0.823716 -0.188489 0.568594
v 1.278399 0.764971 -0.258183

vt 0.0858 0.4454
vt 0.0825 0.114
vt 0.9271 0.2453
vt 0.9123 0.4308
vt 0.9353 0.608
vt 0.0141 0.7518
vt 0.1604 0.7494
vt 0.2373 0.6037
vt 0.2595 0.426
vt 0.2435 0.2408
vt 0.7713 0.1319
vt 0.8215 0.3473
vt 0.8405 0.554
vt 0.8663 0.765
vt 0.0937 0.9453
vt 0.3063 0.7598
vt 0.3316 0.5487
vt 0.3508 0.342
vt 0.4033 0.127
vt 0.5876 0.2232
vt 0.7092 0.3152
vt 0.7528 0.4837
vt 0.7579 0.6664
vt 0.6987 0.8442
vt 0.4697 0.8407
vt 0.4135 0.6616
vt 0.4194 0.4791
vt 0.4642 0.3115
vt 0.5858 0.5546

vn -0.845502 -0.505933 0.170756
vn -0.445539 -0.259098 0.85695
vn -0.715599 0.116468 0.688733
vn -0.925487 0.290052 0.243605
vn -0.947873 0.163839 -0.273303
vn -0.782085 -0.19135 -0.593066
vn -0.531458 -0.608813 -0.588981
vn -0.298698 -0.917473 -0.262722
vn -0.181249 -0.949604 0.255735
vn -0.239607 -0.676379 0.696491
vn 0.080364 0.341312 0.936508
vn -0.255501 0.783779 0.566047
vn -0.451376 0.884908 -0.114883
vn -0.38383 0.556703 -0.73672
vn -0.114833 0.015631 -0.993262
vn 0.232706 -0.506883 -0.830011
vn 0.526492 -0.804237 -0.275699
vn 0.593793 -0.679494 0.430927
vn 0.403713 -0.213824 0.889548
vn 0.590358 0.480167 0.648781
vn 0.335377 0.849746 0.40676
vn 0.169256 0.981298 -0.091687
vn 0.174726 0.782383 -0.597785
vn 0.348722 0.376365 -0.858337
vn 0.617318 -0.039708 -0.785711
vn 0.867225 -0.296256 -0.40019
vn 0.955563 -0.259363 0.14011
vn 0.833449 0.05265 0.550082
vn 0.845502 0.505933 -0.170756

f 1/1/1 2/2/2 3/3/3
f 1/1/1 3/3/3 4/4/4
f 1/1/1 4/4/4 5/5/5
f 1/1/1 5/5/5 6/6/6
f 1/1/1 6/6/6 7/7/7
f 1/1/1 7/7/7 8/8/8
f 1/1/1 8/8/8 9/9/9
f 1/1/1 9/9/9 10/10/10
f 1/1/1 10/10/10 2/2/2
f 2/2/2 11/11/11 3/3/3
f 3/3/3 11/11/11 12/12/12
f 3/3/3 12/12/12 4/4/4
f 4/4/4 12/12/12 13/13/13
f 4/4/4 13/13/13 5/5/5
f 5/5/5 13/13/13 14/14/14
f 5/5/5 14/14/14 6/6/6
f 6/6/6 14/14/14 15/15/15
f 6/6/6 15/15/15 7/7/7
f 7/7/7 15/15/15 16/16/16
f 7/7/7 16/16/16 8/8/8
f 8/8/8 16/16/16 17/17/17
f 8/8/8 17/17/17 9/9/9
f 9/9/9 17/17/17 18/18/18
f 9/9/9 18/18/18 10/10/10
f 10/10/10 18/18/18 19/19/19
f 10/10/10 19/19/19 2/2/2
f 2/2/2 19/19/19 11/11/11
f 11/11/11 20/20/20 12/12/12
f 12/12/12 20/20/20 21/21/21
f 12/12/12 21/21/21 13/13/13
f 13/13/13 21/21/21 22/22/22
f 13/13/13 22/22/22 14/14/14
f 14/14/14 22/22/22 23/23/23
f 14/14/14 23/23/23 15/15/15
f 15/15/15 23/23/23 24/24/24
f 15/15/15 24/24/24 16/16/16
f 16/16/16 24/24/24 25/25/25
f 16/16/16 25/25/25 17/17/17
f 17/17/17 25/25/25 26/26/26
f 17/17/17 26/26/26 18/18/18
f 18/18/18 26/26/26 27/27/27
f 18/18/18 27/27/27 19/19/19
f 19/19/19 27/27/27 28/28/28
f 19/19/19 28/28/28 11/11/11
f 11/11/11 28/28/28 20/20/20
f 20/20/20 29/29/29 21/21/21
f 21/21/21 29/29/29 22/22/22
f 22/22/22 29/29/29 23/23/23
f 23/23/23 29/29/29 24/24/24
f 24/24/24 29/29/29 25/25/25
f 25/25/25 29/29/29 26/26/26
f 26/26/26 29/29/29 27/27/27
f 27/27/27 29/29/29 28/28/28
f 28/28/28 29/29/29 20/20/20
