# Poly-Spinor Nexus 7D Avatar
# Vault: vault_001
# Avatar ID: c102810b86d9260e
# Type: 7d_projection
# Rarity: uncommon (36.6)
# Generated: 2026-01-07T02:20:33.964572

v 0.771711 -0.73893 -0.013381
v 1.34133 -1.299241 0.023685
v 1.501234 -1.425302 0.12966
v 1.119377 -1.034037 0.332134
v 0.334611 -0.300365 0.569064
v -0.512809 0.429618 0.718995
v -1.059794 0.824114 0.674523
v -1.107313 0.744403 0.413321
v -0.711916 0.314116 0.021518
v -0.13452 -0.16117 -0.347462
v 0.318623 -0.377525 -0.556196
v 0.467534 -0.212869 -0.559759
v 0.343599 0.201268 -0.428987
v 0.143041 0.558678 -0.304781
v 0.082763 0.562827 -0.308771
v 0.249971 0.109672 -0.462854
v 0.538976 -0.637727 -0.666741
v 0.714456 -1.327443 -0.750008
v 0.562954 -1.606468 -0.571736
v 0.03972 -1.311861 -0.111713
v -0.680791 -0.557468 0.500168
v -1.285945 0.331212 1.036268
v -1.493966 0.994498 1.279675
v -1.213429 1.225724 1.131356
v -0.598771 1.062541 0.658603
v 0.033429 0.734773 0.059485
v 0.381546 0.505801 -0.436166
v 0.328065 0.505686 -0.674962
v 0.002581 0.656564 -0.640245
v -0.298982 0.733572 -0.436182
v -0.293359 0.522056 -0.21099
v 0.116075 -0.026719 -0.067523

vt 0.3785 0.504
vt 0.3775 0.496
vt 0.3791 0.4801
vt 0.3813 0.4317
vt 0.3836 0.2129
vt 0.889 0.2385
vt 0.8948 0.3518
vt 0.9058 0.4044
vt 0.9339 0.4912
vt 0.1393 0.827
vt 0.3616 0.7688
vt 0.432 0.7636
vt 0.5843 0.7618
vt 0.7101 0.6548
vt 0.7268 0.6583
vt 0.5658 0.8304
vt 0.3617 0.7145
vt 0.3286 0.647
vt 0.3036 0.6031
vt 0.2548 0.527
vt 0.1092 0.3355
vt 0.9599 0.2891
vt 0.9065 0.3028
vt 0.8742 0.3152
vt 0.8317 0.3424
vt 0.7428 0.4743
vt 0.6471 0.6919
vt 0.6584 0.768
vt 0.7494 0.746
vt 0.8116 0.6602
vt 0.8315 0.6078
vt 0.464 0.6642

vn 0.168921 0.186799 0.967766
vn -0.644122 -0.660457 0.385879
vn -0.655699 -0.722773 0.218307
vn -0.609233 -0.735786 0.295726
vn -0.56713 -0.731069 0.379345
vn -0.560243 -0.737059 0.377985
vn -0.55172 -0.755127 0.354102
vn -0.487936 -0.777678 0.396403
vn -0.267717 -0.74676 0.608833
vn 0.089392 -0.516798 0.851428
vn 0.254068 -0.31192 0.915508
vn 0.258075 -0.243648 0.934897
vn 0.173099 -0.256318 0.950967
vn 0.003415 -0.31996 0.947425
vn -0.40924 -0.432197 0.803572
vn -0.907644 -0.281278 -0.311551
vn -0.748003 -0.123445 -0.652114
vn -0.698165 -0.092923 -0.709881
vn -0.682221 -0.073972 -0.727394
vn -0.658084 -0.025533 -0.752511
vn -0.606309 0.055089 -0.793319
vn -0.560171 0.115317 -0.820311
vn -0.550153 0.147585 -0.821919
vn -0.53802 0.230978 -0.810669
vn -0.396283 0.516536 -0.759046
vn 0.071457 0.89297 -0.444408
vn 0.362113 0.918394 -0.159456
vn 0.435951 0.89997 0.000155
vn 0.496123 0.814323 0.301231
vn 0.553643 0.658823 0.509345
vn 0.581343 0.597125 0.552704
vn 0.554087 0.554704 0.620718

f 1/1/1 2/2/2 3/3/3
f 2/2/2 3/3/3 4/4/4
f 3/3/3 4/4/4 5/5/5
f 4/4/4 5/5/5 6/6/6
f 5/5/5 6/6/6 7/7/7
f 6/6/6 7/7/7 8/8/8
f 7/7/7 8/8/8 9/9/9
f 8/8/8 9/9/9 10/10/10
f 9/9/9 10/10/10 11/11/11
f 10/10/10 11/11/11 12/12/12
f 11/11/11 12/12/12 13/13/13
f 12/12/12 13/13/13 14/14/14
f 13/13/13 14/14/14 15/15/15
f 14/14/14 15/15/15 16/16/16
f 15/15/15 16/16/16 17/17/17
f 16/16/16 17/17/17 18/18/18
f 17/17/17 18/18/18 19/19/19
f 18/18/18 19/19/19 20/20/20
f 19/19/19 20/20/20 21/21/21
f 20/20/20 21/21/21 22/22/22
f 21/21/21 22/22/22 23/23/23
f 22/22/22 23/23/23 24/24/24
f 23/23/23 24/24/24 25/25/25
f 24/24/24 25/25/25 26/26/26
f 25/25/25 26/26/26 27/27/27
f 26/26/26 27/27/27 28/28/28
f 27/27/27 28/28/28 29/29/29
f 28/28/28 29/29/29 30/30/30
f 29/29/29 30/30/30 31/31/31
f 30/30/30 31/31/31 32/32/32
f 31/31/31 32/32/32 1/1/1
f 32/32/32 1/1/1 2/2/2
