# Poly-Spinor Nexus 7D Avatar
# Vault: vault_00009
# Avatar ID: 27282c1bfd1ebe15
# Type: 7d_projection
# Rarity: mythical (91.0)
# Generated: 2026-01-07T02:36:20.341034

v 0.084757 0.853718 -0.510864
v 0.634957 1.122821 -0.304736
v 0.945109 0.968559 -0.077305
v 0.865499 0.42146 0.055951
v 0.45229 -0.292175 0.072612
v -0.07247 -0.847526 0.035323
v -0.449267 -0.980108 0.029721
v -0.522386 -0.623311 0.093869
v -0.314055 0.050977 0.187765
v 0.006839 0.714162 0.2235
v 0.237302 1.044867 0.135703
v 0.26351 0.889722 -0.056212
v 0.120781 0.336937 -0.239579
v -0.043237 -0.334548 -0.266599
v -0.075902 -0.800901 -0.048754
v 0.071698 -0.855267 0.369579
v 0.304222 -0.501168 0.808258
v 0.437107 0.06675 1.030606
v 0.315173 0.576338 0.867578
v -0.077896 0.818461 0.319816
v -0.588926 0.737759 -0.422123
v -0.967603 0.430937 -1.056902
v -1.004248 0.065362 -1.314277
v -0.654255 -0.225225 -1.087243
v -0.074924 -0.403527 -0.485158
v 0.451062 -0.517054 0.220363
v 0.666113 -0.628702 0.728275
v 0.478852 -0.742963 0.850176
v 0.015855 -0.782522 0.58909
v -0.446654 -0.635543 0.118446
v -0.63428 -0.245415 -0.320941
v -0.425022 0.317124 -0.545937

vt 0.7343 0.671
vt 0.6681 0.5738
vt 0.627 0.5182
vt 0.5721 0.4815
vt 0.4087 0.4573
vt 0.2364 0.4868
vt 0.1816 0.4912
vt 0.139 0.4634
vt 0.9744 0.3303
vt 0.7485 0.4035
vt 0.7145 0.4599
vt 0.7042 0.5193
vt 0.6952 0.6878
vt 0.2295 0.7129
vt 0.235 0.5193
vt 0.2633 0.3706
vt 0.3368 0.1998
vt 0.5241 0.129
vt 0.6704 0.2063
vt 0.7651 0.3819
vt 0.8572 0.6338
vt 0.9333 0.7497
vt 0.9897 0.792
vt 0.0528 0.8196
vt 0.2208 0.7765
vt 0.3642 0.4011
vt 0.3796 0.2862
vt 0.3411 0.2562
vt 0.2532 0.2946
vt 0.1525 0.4518
vt 0.0588 0.6403
vt 0.898 0.7546

vn 0.507235 -0.407785 -0.759226
vn 0.477331 -0.330595 -0.814163
vn 0.458635 -0.28274 -0.842444
vn 0.401499 -0.244267 -0.882685
vn 0.253047 -0.1408 -0.957153
vn 0.064031 0.026845 -0.997587
vn -0.043946 0.135839 -0.989756
vn -0.15261 0.189232 -0.970001
vn -0.411984 0.277023 -0.86806
vn -0.684796 0.37333 -0.625842
vn -0.799368 0.393102 -0.454403
vn -0.902054 0.344274 -0.260336
vn -0.962033 0.265212 0.064465
vn -0.93577 0.225778 0.270847
vn -0.917978 0.205261 0.339388
vn -0.912068 0.147378 0.382638
vn -0.884735 0.05433 0.462917
vn -0.843178 -0.002142 0.537629
vn -0.82208 -0.024399 0.568849
vn -0.814295 -0.073621 0.575763
vn -0.790413 -0.18476 0.584048
vn -0.742343 -0.30376 0.597208
vn -0.711478 -0.375676 0.593857
vn -0.685057 -0.495611 0.533916
vn -0.49047 -0.823149 0.286121
vn 0.024298 -0.987536 -0.155506
vn 0.265161 -0.905395 -0.331587
vn 0.345832 -0.82298 -0.450671
vn 0.442984 -0.667384 -0.598635
vn 0.521179 -0.537976 -0.662536
vn 0.551009 -0.488167 -0.676818
vn 0.541788 -0.462018 -0.702144

f 1/1/1 2/2/2 3/3/3
f 2/2/2 3/3/3 4/4/4
f 3/3/3 4/4/4 5/5/5
f 4/4/4 5/5/5 6/6/6
f 5/5/5 6/6/6 7/7/7
f 6/6/6 7/7/7 8/8/8
f 7/7/7 8/8/8 9/9/9
f 8/8/8 9/9/9 10/10/10
f 9/9/9 10/10/10 11/11/11
f 10/10/10 11/11/11 12/12/12
f 11/11/11 12/12/12 13/13/13
f 12/12/12 13/13/13 14/14/14
f 13/13/13 14/14/14 15/15/15
f 14/14/14 15/15/15 16/16/16
f 15/15/15 16/16/16 17/17/17
f 16/16/16 17/17/17 18/18/18
f 17/17/17 18/18/18 19/19/19
f 18/18/18 19/19/19 20/20/20
f 19/19/19 20/20/20 21/21/21
f 20/20/20 21/21/21 22/22/22
f 21/21/21 22/22/22 23/23/23
f 22/22/22 23/23/23 24/24/24
f 23/23/23 24/24/24 25/25/25
f 24/24/24 25/25/25 26/26/26
f 25/25/25 26/26/26 27/27/27
f 26/26/26 27/27/27 28/28/28
f 27/27/27 28/28/28 29/29/29
f 28/28/28 29/29/29 30/30/30
f 29/29/29 30/30/30 31/31/31
f 30/30/30 31/31/31 32/32/32
f 31/31/31 32/32/32 1/1/1
f 32/32/32 1/1/1 2/2/2
