# Poly-Spinor Nexus 7D Avatar
# Vault: vault_00028
# Avatar ID: 7dc6c46f82e441a3
# Type: nexus_crystal
# Rarity: primordial (100.0)
# Generated: 2026-01-07T02:40:03.445254

v -1.016423 0.804761 1.073189
v -0.638223 -0.4546 0.616203
v -0.148436 -0.266837 0.939284
v 0.229835 0.234375 0.921698
v 0.275002 0.755432 0.573747
v -0.039392 0.991107 0.099256
v -0.529179 0.803344 -0.223825
v -0.90745 0.302132 -0.206239
v -0.952617 -0.218925 0.141712
v -0.088521 -1.021192 0.68193
v 0.616163 -0.461886 0.929929
v 0.959907 0.367987 0.633189
v 0.741351 0.982297 -0.034466
v 0.088521 1.021192 -0.68193
v -0.616163 0.461886 -0.929929
v -0.959907 -0.367987 -0.633189
v -0.741351 -0.982297 0.034466
v 0.039392 -0.991107 -0.099256
v 0.529179 -0.803344 0.223825
v 0.90745 -0.302132 0.206239
v 0.952617 0.218925 -0.141712
v 0.638223 0.4546 -0.616203
v 0.148436 0.266837 -0.939284
v -0.229835 -0.234375 -0.921698
v -0.275002 -0.755432 -0.573747
v 1.016423 -0.804761 -1.073189

vt 0.8934 0.2799
vt 0.0985 0.2879
vt 0.1692 0.1
vt 0.6266 0.1089
vt 0.6944 0.3027
vt 0.7563 0.4683
vt 0.8427 0.5728
vt 0.9488 0.5676
vt 0.036 0.4542
vt 0.2362 0.3131
vt 0.3976 0.2202
vt 0.5583 0.3243
vt 0.6471 0.5089
vt 0.7362 0.6869
vt 0.8976 0.7798
vt 0.0583 0.6757
vt 0.1471 0.4911
vt 0.2563 0.5317
vt 0.3427 0.4272
vt 0.4488 0.4324
vt 0.536 0.5458
vt 0.5985 0.7121
vt 0.6692 0.9
vt 0.1266 0.8911
vt 0.1944 0.6973
vt 0.3934 0.7201

vn -0.603935 0.47817 0.637664
vn -0.652427 -0.417048 0.63278
vn -0.152519 -0.233634 0.960288
vn 0.219229 0.246728 0.943962
vn 0.255618 0.751694 0.60796
vn -0.070006 0.989039 0.13
vn -0.563429 0.800491 -0.204355
vn -0.928863 0.31513 -0.194695
vn -0.971565 -0.184837 0.147973
vn -0.081267 -0.888637 0.451354
vn 0.512789 -0.481141 0.71102
vn 0.832424 0.166632 0.528493
vn 0.710051 0.704115 0.006971
vn 0.187592 0.804452 -0.563618
vn -0.408469 0.398545 -0.821166
vn -0.728486 -0.248926 -0.638236
vn -0.60413 -0.78798 -0.118808
vn 0.142547 -0.989709 -0.012518
vn 0.645846 -0.71469 0.268516
vn 0.965093 -0.18869 0.181636
vn 0.930909 0.290949 -0.220809
vn 0.542703 0.447157 -0.711002
vn 0.03125 0.178595 -0.983426
vn -0.291999 -0.344238 -0.892321
vn -0.249807 -0.830217 -0.498333
vn 0.603935 -0.47817 -0.637664

f 1/1/1 2/2/2 3/3/3
f 1/1/1 3/3/3 4/4/4
f 1/1/1 4/4/4 5/5/5
f 1/1/1 5/5/5 6/6/6
f 1/1/1 6/6/6 7/7/7
f 1/1/1 7/7/7 8/8/8
f 1/1/1 8/8/8 9/9/9
f 1/1/1 9/9/9 2/2/2
f 2/2/2 10/10/10 3/3/3
f 3/3/3 10/10/10 11/11/11
f 3/3/3 11/11/11 4/4/4
f 4/4/4 11/11/11 12/12/12
f 4/4/4 12/12/12 5/5/5
f 5/5/5 12/12/12 13/13/13
f 5/5/5 13/13/13 6/6/6
f 6/6/6 13/13/13 14/14/14
f 6/6/6 14/14/14 7/7/7
f 7/7/7 14/14/14 15/15/15
f 7/7/7 15/15/15 8/8/8
f 8/8/8 15/15/15 16/16/16
f 8/8/8 16/16/16 9/9/9
f 9/9/9 16/16/16 17/17/17
f 9/9/9 17/17/17 2/2/2
f 2/2/2 17/17/17 10/10/10
f 10/10/10 18/18/18 11/11/11
f 11/11/11 18/18/18 19/19/19
f 11/11/11 19/19/19 12/12/12
f 12/12/12 19/19/19 20/20/20
f 12/12/12 20/20/20 13/13/13
f 13/13/13 20/20/20 21/21/21
f 13/13/13 21/21/21 14/14/14
f 14/14/14 21/21/21 22/22/22
f 14/14/14 22/22/22 15/15/15
f 15/15/15 22/22/22 23/23/23
f 15/15/15 23/23/23 16/16/16
f 16/16/16 23/23/23 24/24/24
f 16/16/16 24/24/24 17/17/17
f 17/17/17 24/24/24 25/25/25
f 17/17/17 25/25/25 10/10/10
f 10/10/10 25/25/25 18/18/18
f 18/18/18 26/26/26 19/19/19
f 19/19/19 26/26/26 20/20/20
f 20/20/20 26/26/26 21/21/21
f 21/21/21 26/26/26 22/22/22
f 22/22/22 26/26/26 23/23/23
f 23/23/23 26/26/26 24/24/24
f 24/24/24 26/26/26 25/25/25
f 25/25/25 26/26/26 18/18/18
