# Poly-Spinor Nexus 7D Avatar
# Vault: vault_00024
# Avatar ID: 4713ef9c776d616f
# Type: nexus_crystal
# Rarity: mythical (91.0)
# Generated: 2026-01-07T02:39:53.441016

v 1.103234 -0.628471 -1.777007
v -0.273358 0.316649 -1.176436
v 0.406194 0.718792 -0.896769
v 1.056793 0.42192 -0.387858
v 1.188524 -0.350417 -0.032923
v 0.702192 -1.016634 -0.099237
v -0.035986 -1.075055 -0.536864
v -0.470146 -0.481689 -1.016263
v -0.501671 1.210715 -0.739648
v 0.605596 1.298347 -0.083207
v 1.256837 0.408297 0.635891
v 0.961654 -0.789209 0.87615
v -0.057674 -1.392424 0.45665
v -1.033572 -0.947116 -0.306716
v -1.231169 0.21139 -0.839119
v -1.008847 0.73563 0.008236
v -0.329295 1.137773 0.287902
v 0.321303 0.840901 0.796813
v 0.453035 0.068564 1.151748
v -0.033298 -0.597653 1.085435
v -0.771475 -0.656074 0.647807
v -1.205636 -0.062708 0.168409
v -1.103234 0.628471 1.777007

vt 0.4176 0.8025
vt 0.8633 0.8913
vt 0.6681 0.7631
vt 0.5605 0.6046
vt 0.4544 0.5085
vt 0.3462 0.5255
vt 0.2447 0.6474
vt 0.1269 0.8138
vt 0.8125 0.6636
vt 0.6805 0.5185
vt 0.55 0.3572
vt 0.3906 0.3047
vt 0.2434 0.3992
vt 0.1181 0.5686
vt 0.9729 0.6883
vt 0.8997 0.4979
vt 0.7948 0.4241
vt 0.6919 0.2694
vt 0.5239 0.1205
vt 0.2411 0.1604
vt 0.1122 0.3189
vt 0.0083 0.4559
vt 0.9176 0.1975

vn 0.505144 -0.287762 -0.813648
vn -0.222011 0.255723 -0.940913
vn 0.360589 0.625662 -0.691754
vn 0.868724 0.402982 -0.287965
vn 0.969881 -0.24285 -0.018823
vn 0.531468 -0.843424 -0.078603
vn -0.085623 -0.904359 -0.418095
vn -0.415427 -0.437386 -0.797567
vn -0.439255 0.794753 -0.418835
vn 0.306999 0.951553 -0.017279
vn 0.769717 0.456252 0.446508
vn 0.636595 -0.386111 0.667582
vn -0.050706 -0.90584 0.420575
vn -0.70082 -0.711166 -0.055628
vn -0.901649 0.016571 -0.43215
vn -0.698911 0.714767 -0.025121
vn -0.05647 0.962814 0.264196
vn 0.406302 0.620455 0.670787
vn 0.378401 -0.076542 0.922472
vn -0.151241 -0.613433 0.77513
vn -0.74251 -0.558247 0.370189
vn -0.999619 0.012087 0.024828
vn -0.505144 0.287762 0.813648

f 1/1/1 2/2/2 3/3/3
f 1/1/1 3/3/3 4/4/4
f 1/1/1 4/4/4 5/5/5
f 1/1/1 5/5/5 6/6/6
f 1/1/1 6/6/6 7/7/7
f 1/1/1 7/7/7 8/8/8
f 1/1/1 8/8/8 2/2/2
f 2/2/2 9/9/9 3/3/3
f 3/3/3 9/9/9 10/10/10
f 3/3/3 10/10/10 4/4/4
f 4/4/4 10/10/10 11/11/11
f 4/4/4 11/11/11 5/5/5
f 5/5/5 11/11/11 12/12/12
f 5/5/5 12/12/12 6/6/6
f 6/6/6 12/12/12 13/13/13
f 6/6/6 13/13/13 7/7/7
f 7/7/7 13/13/13 14/14/14
f 7/7/7 14/14/14 8/8/8
f 8/8/8 14/14/14 15/15/15
f 8/8/8 15/15/15 2/2/2
f 2/2/2 15/15/15 9/9/9
f 9/9/9 16/16/16 10/10/10
f 10/10/10 16/16/16 17/17/17
f 10/10/10 17/17/17 11/11/11
f 11/11/11 17/17/17 18/18/18
f 11/11/11 18/18/18 12/12/12
f 12/12/12 18/18/18 19/19/19
f 12/12/12 19/19/19 13/13/13
f 13/13/13 19/19/19 20/20/20
f 13/13/13 20/20/20 14/14/14
f 14/14/14 20/20/20 21/21/21
f 14/14/14 21/21/21 15/15/15
f 15/15/15 21/21/21 22/22/22
f 15/15/15 22/22/22 9/9/9
f 9/9/9 22/22/22 16/16/16
f 16/16/16 23/23/23 17/17/17
f 17/17/17 23/23/23 18/18/18
f 18/18/18 23/23/23 19/19/19
f 19/19/19 23/23/23 20/20/20
f 20/20/20 23/23/23 21/21/21
f 21/21/21 23/23/23 22/22/22
f 22/22/22 23/23/23 16/16/16
