# Poly-Spinor Nexus 7D Avatar
# Vault: vault_00022
# Avatar ID: b3623986bc7e26a4
# Type: nexus_crystal
# Rarity: mythical (91.0)
# Generated: 2026-01-07T02:36:44.350556

v 0.415906 -0.812457 -1.388949
v -0.989774 -0.553471 -0.635538
v -0.671532 0.245317 -1.00749
v 0.256783 0.655444 -0.969417
v 1.09613 0.368076 -0.549989
v 1.214465 -0.400393 -0.065043
v 0.522678 -1.071291 0.120245
v -0.458301 -1.139417 -0.133648
v -1.613744 0.194361 -0.596909
v -0.576063 1.200707 -0.874843
v 0.895405 1.302896 -0.494002
v 1.692615 0.423978 0.258833
v 1.215251 -0.774204 0.816761
v -0.177221 -1.389395 0.759651
v -1.436242 -0.958343 0.130509
v -1.267045 -0.011833 0.290428
v -0.948803 0.786955 -0.081524
v -0.020488 1.197082 -0.043451
v 0.81886 0.909714 0.375977
v 0.937194 0.141245 0.860922
v 0.245407 -0.529652 1.046211
v -0.735572 -0.597778 0.792317
v -0.415906 0.812457 1.388949

vt 0.3253 0.8149
vt 0.0811 0.6626
vt 0.9443 0.8036
vt 0.6906 0.8001
vt 0.5516 0.6413
vt 0.4493 0.5162
vt 0.3222 0.468
vt 0.1891 0.5345
vt 0.9809 0.612
vt 0.8212 0.685
vt 0.6542 0.5964
vt 0.5391 0.4531
vt 0.4097 0.3359
vt 0.2298 0.3418
vt 0.0936 0.476
vt 0.0015 0.4283
vt 0.8898 0.521
vt 0.7527 0.5115
vt 0.6334 0.4051
vt 0.5238 0.2653
vt 0.3191 0.162
vt 0.1086 0.2784
vt 0.8253 0.1851

vn 0.250245 -0.488843 -0.835709
vn -0.466601 -0.52229 -0.71379
vn -0.288322 0.033004 -0.956965
vn 0.222281 0.279904 -0.93394
vn 0.720322 0.061568 -0.690902
vn 0.804064 -0.482257 -0.347718
vn 0.403141 -0.894607 -0.192761
vn -0.140762 -0.925261 -0.352248
vn -0.968981 0.161431 -0.187123
vn -0.44296 0.79448 -0.415436
vn 0.317221 0.913616 -0.254317
vn 0.881488 0.418402 0.218901
vn 0.687445 -0.381293 0.61809
vn -0.007407 -0.77529 0.631561
vn -0.74422 -0.588836 0.315293
vn -0.867183 0.293085 0.402609
vn -0.562698 0.81209 0.154534
vn 0.00273 0.974077 0.2262
vn 0.459105 0.680146 0.57151
vn 0.431334 0.083569 0.898314
vn -0.040886 -0.301613 0.952553
vn -0.610157 -0.22112 0.760799
vn -0.250244 0.488843 0.835709

f 1/1/1 2/2/2 3/3/3
f 1/1/1 3/3/3 4/4/4
f 1/1/1 4/4/4 5/5/5
f 1/1/1 5/5/5 6/6/6
f 1/1/1 6/6/6 7/7/7
f 1/1/1 7/7/7 8/8/8
f 1/1/1 8/8/8 2/2/2
f 2/2/2 9/9/9 3/3/3
f 3/3/3 9/9/9 10/10/10
f 3/3/3 10/10/10 4/4/4
f 4/4/4 10/10/10 11/11/11
f 4/4/4 11/11/11 5/5/5
f 5/5/5 11/11/11 12/12/12
f 5/5/5 12/12/12 6/6/6
f 6/6/6 12/12/12 13/13/13
f 6/6/6 13/13/13 7/7/7
f 7/7/7 13/13/13 14/14/14
f 7/7/7 14/14/14 8/8/8
f 8/8/8 14/14/14 15/15/15
f 8/8/8 15/15/15 2/2/2
f 2/2/2 15/15/15 9/9/9
f 9/9/9 16/16/16 10/10/10
f 10/10/10 16/16/16 17/17/17
f 10/10/10 17/17/17 11/11/11
f 11/11/11 17/17/17 18/18/18
f 11/11/11 18/18/18 12/12/12
f 12/12/12 18/18/18 19/19/19
f 12/12/12 19/19/19 13/13/13
f 13/13/13 19/19/19 20/20/20
f 13/13/13 20/20/20 14/14/14
f 14/14/14 20/20/20 21/21/21
f 14/14/14 21/21/21 15/15/15
f 15/15/15 21/21/21 22/22/22
f 15/15/15 22/22/22 9/9/9
f 9/9/9 22/22/22 16/16/16
f 16/16/16 23/23/23 17/17/17
f 17/17/17 23/23/23 18/18/18
f 18/18/18 23/23/23 19/19/19
f 19/19/19 23/23/23 20/20/20
f 20/20/20 23/23/23 21/21/21
f 21/21/21 23/23/23 22/22/22
f 22/22/22 23/23/23 16/16/16
