# Poly-Spinor Nexus 7D Avatar
# Vault: vault_00001
# Avatar ID: 9e6c9d2508fc37b4
# Type: nexus_crystal
# Rarity: primordial (100.0)
# Generated: 2026-01-07T02:36:07.640218

v 2.169948 0.265527 0.061568
v 0.746139 0.170979 -1.139525
v 0.676749 0.666917 -0.832757
v 0.629149 0.89221 -0.126729
v 0.62561 0.741443 0.648199
v 0.667789 0.285161 1.129431
v 0.73595 -0.263137 1.091792
v 0.798199 -0.646896 0.552894
v 0.825409 -0.686551 -0.235106
v 0.804849 -0.363547 -0.903495
v -0.018951 0.527469 -1.606904
v -0.112325 1.103108 -0.798558
v -0.15314 1.16259 0.383443
v -0.1223 0.678083 1.386026
v -0.034234 -0.123706 1.740072
v 0.06985 -0.867612 1.279919
v 0.141251 -1.205552 0.220878
v 0.146559 -0.979402 -0.941515
v 0.08329 -0.294978 -1.663362
v -0.700493 -0.006038 -1.180571
v -0.769883 0.489899 -0.873802
v -0.817483 0.715193 -0.167775
v -0.821022 0.564426 0.607154
v -0.778843 0.108143 1.088385
v -0.710682 -0.440155 1.050747
v -0.648433 -0.823914 0.511849
v -0.621222 -0.863569 -0.276151
v -0.641783 -0.540564 -0.94454
v -2.169948 -0.265527 -0.061568

vt 0.5194 0.491
vt 0.5359 0.8117
vt 0.6238 0.7291
vt 0.6523 0.5368
vt 0.6385 0.3125
vt 0.5642 0.1819
vt 0.4453 0.1978
vt 0.3916 0.3429
vt 0.3896 0.5686
vt 0.4325 0.7536
vt 0.7557 0.899
vt 0.7662 0.6987
vt 0.7708 0.3994
vt 0.7784 0.1468
vt 0.207 0.0234
vt 0.2628 0.1901
vt 0.2686 0.4427
vt 0.2736 0.742
vt 0.2938 0.942
vt 0.0014 0.8295
vt 0.9098 0.7431
vt 0.8856 0.5488
vt 0.9041 0.3258
vt 0.978 0.1991
vt 0.0883 0.2139
vt 0.1439 0.3554
vt 0.1508 0.5808
vt 0.1114 0.7688
vt 0.0194 0.509

vn 0.992203 0.121411 0.028152
vn 0.638804 0.13145 -0.758057
vn 0.485975 0.737459 -0.469022
vn 0.385016 0.922315 -0.033119
vn 0.407949 0.8269 0.387057
vn 0.542108 0.38855 0.745083
vn 0.632843 -0.341343 0.694978
vn 0.60359 -0.746877 0.279023
vn 0.597576 -0.787562 -0.150496
vn 0.643133 -0.526745 -0.555806
vn -0.097971 0.412749 -0.90556
vn -0.158907 0.912773 -0.37629
vn -0.17594 0.97614 0.127264
vn -0.172282 0.762916 0.62312
vn -0.108857 0.042955 0.993129
vn 0.009191 -0.758906 0.651136
vn 0.064375 -0.991406 0.113881
vn 0.068397 -0.924915 -0.373972
vn 0.016151 -0.49867 -0.866641
vn -0.600487 0.140844 -0.787133
vn -0.592545 0.688718 -0.417803
vn -0.5722 0.819689 0.026396
vn -0.605134 0.657796 0.448462
vn -0.635432 0.103706 0.765161
vn -0.510765 -0.612337 0.603459
vn -0.378049 -0.910995 0.164822
vn -0.363677 -0.892743 -0.265986
vn -0.470024 -0.572681 -0.67165
vn -0.992203 -0.121411 -0.028152

f 1/1/1 2/2/2 3/3/3
f 1/1/1 3/3/3 4/4/4
f 1/1/1 4/4/4 5/5/5
f 1/1/1 5/5/5 6/6/6
f 1/1/1 6/6/6 7/7/7
f 1/1/1 7/7/7 8/8/8
f 1/1/1 8/8/8 9/9/9
f 1/1/1 9/9/9 10/10/10
f 1/1/1 10/10/10 2/2/2
f 2/2/2 11/11/11 3/3/3
f 3/3/3 11/11/11 12/12/12
f 3/3/3 12/12/12 4/4/4
f 4/4/4 12/12/12 13/13/13
f 4/4/4 13/13/13 5/5/5
f 5/5/5 13/13/13 14/14/14
f 5/5/5 14/14/14 6/6/6
f 6/6/6 14/14/14 15/15/15
f 6/6/6 15/15/15 7/7/7
f 7/7/7 15/15/15 16/16/16
f 7/7/7 16/16/16 8/8/8
f 8/8/8 16/16/16 17/17/17
f 8/8/8 17/17/17 9/9/9
f 9/9/9 17/17/17 18/18/18
f 9/9/9 18/18/18 10/10/10
f 10/10/10 18/18/18 19/19/19
f 10/10/10 19/19/19 2/2/2
f 2/2/2 19/19/19 11/11/11
f 11/11/11 20/20/20 12/12/12
f 12/12/12 20/20/20 21/21/21
f 12/12/12 21/21/21 13/13/13
f 13/13/13 21/21/21 22/22/22
f 13/13/13 22/22/22 14/14/14
f 14/14/14 22/22/22 23/23/23
f 14/14/14 23/23/23 15/15/15
f 15/15/15 23/23/23 24/24/24
f 15/15/15 24/24/24 16/16/16
f 16/16/16 24/24/24 25/25/25
f 16/16/16 25/25/25 17/17/17
f 17/17/17 25/25/25 26/26/26
f 17/17/17 26/26/26 18/18/18
f 18/18/18 26/26/26 27/27/27
f 18/18/18 27/27/27 19/19/19
f 19/19/19 27/27/27 28/28/28
f 19/19/19 28/28/28 11/11/11
f 11/11/11 28/28/28 20/20/20
f 20/20/20 29/29/29 21/21/21
f 21/21/21 29/29/29 22/22/22
f 22/22/22 29/29/29 23/23/23
f 23/23/23 29/29/29 24/24/24
f 24/24/24 29/29/29 25/25/25
f 25/25/25 29/29/29 26/26/26
f 26/26/26 29/29/29 27/27/27
f 27/27/27 29/29/29 28/28/28
f 28/28/28 29/29/29 20/20/20
