# Poly-Spinor Nexus 7D Avatar
# Vault: vault_00007
# Avatar ID: 0ac8e86ae7bb1bb3
# Type: 7d_projection
# Rarity: mythical (91.0)
# Generated: 2026-01-07T02:36:16.556954

v 0.65732 -0.410192 -0.496866
v 1.377026 -0.3097 -0.882345
v 1.71052 -0.140856 -0.917747
v 1.555492 -0.023799 -0.517299
v 0.987551 -0.032146 0.154084
v 0.224686 -0.166308 0.764935
v -0.465656 -0.360678 1.004101
v -0.873852 -0.516779 0.76083
v -0.922306 -0.545123 0.190838
v -0.677359 -0.398521 -0.372796
v -0.300636 -0.086938 -0.613736
v 0.031136 0.326633 -0.418486
v 0.198272 0.743411 0.055481
v 0.172436 1.052202 0.471617
v 0.006121 1.154374 0.514791
v -0.207392 0.988305 0.08442
v -0.377978 0.5508 -0.633209
v -0.446182 -0.090023 -1.258218
v -0.389032 -0.798316 -1.42542
v -0.213041 -1.396657 -0.990093
v 0.052341 -1.713314 -0.114212
v 0.354334 -1.638427 0.816131
v 0.614797 -1.168604 1.395453
v 0.738908 -0.419416 1.410249
v 0.642965 0.404514 0.939237
v 0.296148 1.074905 0.289822
v -0.243554 1.417369 -0.187652
v -0.823955 1.370485 -0.297658
v -1.238164 1.00205 -0.095353
v -1.301088 0.475871 0.170853
v -0.93256 -0.016351 0.23021
v -0.207296 -0.328772 -0.031963

vt 0.4112 0.6815
vt 0.4648 0.6778
vt 0.4869 0.6563
vt 0.4976 0.6022
vt 0.4948 0.4508
vt 0.3986 0.1115
vt 0.1049 0.1689
vt 0.085 0.2953
vt 0.085 0.4439
vt 0.0846 0.641
vt 0.0448 0.8499
vt 0.7349 0.7883
vt 0.7085 0.4771
vt 0.7241 0.3674
vt 0.7492 0.3665
vt 0.7829 0.4735
vt 0.8457 0.7415
vt 0.0317 0.8895
vt 0.1778 0.8226
vt 0.2259 0.6946
vt 0.2549 0.5212
vt 0.2839 0.3558
vt 0.3271 0.2412
vt 0.4178 0.1726
vt 0.5894 0.2165
vt 0.7072 0.419
vt 0.7771 0.5413
vt 0.8362 0.5586
vt 0.8917 0.519
vt 0.9442 0.4609
vt 0.0028 0.423
vt 0.1605 0.5261

vn 0.509892 0.011842 0.860157
vn 0.487618 -0.536166 0.689025
vn 0.457999 -0.754363 0.47029
vn 0.457875 -0.799343 0.389102
vn 0.411178 -0.855982 0.313411
vn 0.349238 -0.913252 0.209772
vn 0.327455 -0.937982 0.113857
vn 0.37696 -0.925102 0.045687
vn 0.510868 -0.858748 0.039577
vn 0.640969 -0.758526 0.11746
vn 0.67474 -0.700732 0.231733
vn 0.598808 -0.713137 0.364505
vn 0.324181 -0.790762 0.519233
vn -0.137133 -0.813063 0.565793
vn -0.433336 -0.733545 0.523577
vn -0.707494 -0.528243 0.469481
vn -0.895043 -0.279534 0.347504
vn -0.951609 -0.162735 0.260688
vn -0.96401 -0.119459 0.237515
vn -0.9641 -0.062874 0.257989
vn -0.957354 0.038931 0.286283
vn -0.945984 0.122579 0.300147
vn -0.928527 0.150692 0.339309
vn -0.868072 0.194078 0.456929
vn -0.685272 0.34459 0.641608
vn -0.404258 0.540028 0.738204
vn -0.232185 0.63211 0.739275
vn -0.129671 0.609788 0.781885
vn 0.081291 0.506526 0.858384
vn 0.325355 0.431297 0.841503
vn 0.437208 0.414499 0.798148
vn 0.474752 0.337958 0.812647

f 1/1/1 2/2/2 3/3/3
f 2/2/2 3/3/3 4/4/4
f 3/3/3 4/4/4 5/5/5
f 4/4/4 5/5/5 6/6/6
f 5/5/5 6/6/6 7/7/7
f 6/6/6 7/7/7 8/8/8
f 7/7/7 8/8/8 9/9/9
f 8/8/8 9/9/9 10/10/10
f 9/9/9 10/10/10 11/11/11
f 10/10/10 11/11/11 12/12/12
f 11/11/11 12/12/12 13/13/13
f 12/12/12 13/13/13 14/14/14
f 13/13/13 14/14/14 15/15/15
f 14/14/14 15/15/15 16/16/16
f 15/15/15 16/16/16 17/17/17
f 16/16/16 17/17/17 18/18/18
f 17/17/17 18/18/18 19/19/19
f 18/18/18 19/19/19 20/20/20
f 19/19/19 20/20/20 21/21/21
f 20/20/20 21/21/21 22/22/22
f 21/21/21 22/22/22 23/23/23
f 22/22/22 23/23/23 24/24/24
f 23/23/23 24/24/24 25/25/25
f 24/24/24 25/25/25 26/26/26
f 25/25/25 26/26/26 27/27/27
f 26/26/26 27/27/27 28/28/28
f 27/27/27 28/28/28 29/29/29
f 28/28/28 29/29/29 30/30/30
f 29/29/29 30/30/30 31/31/31
f 30/30/30 31/31/31 32/32/32
f 31/31/31 32/32/32 1/1/1
f 32/32/32 1/1/1 2/2/2
