# Poly-Spinor Nexus 7D Avatar
# Vault: vault_00021
# Avatar ID: b0631d9cee594c80
# Type: nexus_crystal
# Rarity: primordial (100.0)
# Generated: 2026-01-07T02:36:42.740661

v 0.55066 -1.494898 -0.805158
v 0.797255 -0.558744 0.263558
v 0.263824 -0.908203 0.547562
v -0.307167 -1.065865 0.449774
v -0.648544 -0.957956 0.015952
v -0.600573 -0.634968 -0.550915
v -0.185702 -0.248032 -0.985584
v 0.401949 0.021801 -1.084668
v 0.887409 0.048274 -0.801804
v 1.043528 -0.181001 -0.269348
v 0.553882 -0.375401 1.075797
v -0.327593 -0.780151 1.224423
v -1.055784 -0.81986 0.800127
v -1.289962 -0.475947 0.001443
v -0.920552 0.090666 -0.797916
v -0.120406 0.614856 -1.223921
v 0.73608 0.851348 -1.07724
v 1.248145 0.689484 -0.426507
v 1.17619 0.205004 0.423794
v 0.430148 0.437855 0.80033
v -0.103283 0.088395 1.084334
v -0.674273 -0.069266 0.986546
v -1.01565 0.038643 0.552724
v -0.96768 0.36163 -0.014144
v -0.552808 0.748566 -0.448812
v 0.034842 1.0184 -0.547896
v 0.520303 1.044872 -0.265032
v 0.676421 0.815597 0.267424
v -0.55066 1.494898 0.805158

vt 0.3062 0.649
vt 0.4027 0.4158
vt 0.295 0.3329
vt 0.2053 0.3774
vt 0.1553 0.4956
vt 0.1294 0.679
vt 0.1477 0.903
vt 0.5086 0.8869
vt 0.5086 0.7336
vt 0.4727 0.5793
vt 0.4052 0.1771
vt 0.1867 0.1925
vt 0.1051 0.3283
vt 0.0563 0.4997
vt 0.9844 0.7266
vt 0.7808 0.8494
vt 0.6365 0.743
vt 0.5803 0.5925
vt 0.5275 0.3914
vt 0.6264 0.2083
vt 0.8873 0.0397
vt 0.0163 0.1916
vt 0.9939 0.3415
vt 0.9431 0.5044
vt 0.8512 0.643
vt 0.7446 0.657
vt 0.6765 0.5711
vt 0.6398 0.4213
vt 0.8062 0.351

vn 0.308493 -0.837478 -0.451069
vn 0.795083 -0.538044 0.279912
vn 0.435678 -0.791322 0.428946
vn -0.09627 -0.962068 0.25526
vn -0.509484 -0.834476 -0.209943
vn -0.541952 -0.546899 -0.638114
vn -0.283518 -0.305867 -0.90888
vn 0.210168 -0.163283 -0.963934
vn 0.75358 -0.169443 -0.635143
vn 0.942337 -0.318779 -0.10189
vn 0.59709 -0.128487 0.791817
vn 0.047697 -0.388408 0.920252
vn -0.684688 -0.458802 0.566307
vn -0.970931 -0.213085 -0.109032
vn -0.809309 0.091511 -0.58021
vn -0.403227 0.381884 -0.831608
vn 0.278775 0.602226 -0.74807
vn 0.858434 0.490482 -0.150064
vn 0.883716 0.170637 0.435809
vn 0.404466 0.346837 0.846234
vn -0.031233 0.16569 0.985683
vn -0.618074 0.11948 0.776987
vn -0.940233 0.238547 0.243017
vn -0.869565 0.447668 -0.208447
vn -0.564455 0.700223 -0.437125
vn -0.059919 0.925565 -0.373817
vn 0.447666 0.893094 0.044482
vn 0.59115 0.615494 0.521257
vn -0.308493 0.837478 0.451069

f 1/1/1 2/2/2 3/3/3
f 1/1/1 3/3/3 4/4/4
f 1/1/1 4/4/4 5/5/5
f 1/1/1 5/5/5 6/6/6
f 1/1/1 6/6/6 7/7/7
f 1/1/1 7/7/7 8/8/8
f 1/1/1 8/8/8 9/9/9
f 1/1/1 9/9/9 10/10/10
f 1/1/1 10/10/10 2/2/2
f 2/2/2 11/11/11 3/3/3
f 3/3/3 11/11/11 12/12/12
f 3/3/3 12/12/12 4/4/4
f 4/4/4 12/12/12 13/13/13
f 4/4/4 13/13/13 5/5/5
f 5/5/5 13/13/13 14/14/14
f 5/5/5 14/14/14 6/6/6
f 6/6/6 14/14/14 15/15/15
f 6/6/6 15/15/15 7/7/7
f 7/7/7 15/15/15 16/16/16
f 7/7/7 16/16/16 8/8/8
f 8/8/8 16/16/16 17/17/17
f 8/8/8 17/17/17 9/9/9
f 9/9/9 17/17/17 18/18/18
f 9/9/9 18/18/18 10/10/10
f 10/10/10 18/18/18 19/19/19
f 10/10/10 19/19/19 2/2/2
f 2/2/2 19/19/19 11/11/11
f 11/11/11 20/20/20 12/12/12
f 12/12/12 20/20/20 21/21/21
f 12/12/12 21/21/21 13/13/13
f 13/13/13 21/21/21 22/22/22
f 13/13/13 22/22/22 14/14/14
f 14/14/14 22/22/22 23/23/23
f 14/14/14 23/23/23 15/15/15
f 15/15/15 23/23/23 24/24/24
f 15/15/15 24/24/24 16/16/16
f 16/16/16 24/24/24 25/25/25
f 16/16/16 25/25/25 17/17/17
f 17/17/17 25/25/25 26/26/26
f 17/17/17 26/26/26 18/18/18
f 18/18/18 26/26/26 27/27/27
f 18/18/18 27/27/27 19/19/19
f 19/19/19 27/27/27 28/28/28
f 19/19/19 28/28/28 11/11/11
f 11/11/11 28/28/28 20/20/20
f 20/20/20 29/29/29 21/21/21
f 21/21/21 29/29/29 22/22/22
f 22/22/22 29/29/29 23/23/23
f 23/23/23 29/29/29 24/24/24
f 24/24/24 29/29/29 25/25/25
f 25/25/25 29/29/29 26/26/26
f 26/26/26 29/29/29 27/27/27
f 27/27/27 29/29/29 28/28/28
f 28/28/28 29/29/29 20/20/20
